SplineFontDB: 3.0
FontName: BenchTwelve-Regular
FullName: BenchTwelve Regular
FamilyName: BenchTwelve
Weight: Regular
Copyright: (c) 2012 Vernon Adams
Version: 1.000;PS (version unavailable);hotconv 1.0.57;makeotf.lib2.0.21895 DEVELOPMENT
ItalicAngle: 0
UnderlinePosition: 0
UnderlineWidth: 0
Ascent: 1536
Descent: 512
UFOAscent: 1536
UFODescent: -512
LayerCount: 2
Layer: 0 0 "Back"  1
Layer: 1 0 "Fore"  0
FSType: 8
OS2Version: 0
OS2_WeightWidthSlopeOnly: 0
OS2_UseTypoMetrics: 0
CreationTime: 1346954862
ModificationTime: 1346956180
PfmFamily: 0
TTFWeight: 400
TTFWidth: 5
LineGap: 0
VLineGap: 0
Panose: 0 0 0 0 0 0 0 0 0 0
OS2TypoAscent: 0
OS2TypoAOffset: 1
OS2TypoDescent: 0
OS2TypoDOffset: 1
OS2TypoLinegap: 0
OS2WinAscent: 8589
OS2WinAOffset: 0
OS2WinDescent: 0
OS2WinDOffset: 0
HheadAscent: 6443
HheadAOffset: 0
HheadDescent: -2148
HheadDOffset: 0
OS2SubXSize: 5583
OS2SubYSize: 5151
OS2SubXOff: 0
OS2SubYOff: 641
OS2SupXSize: 5583
OS2SupYSize: 5151
OS2SupXOff: 0
OS2SupYOff: 3002
OS2StrikeYSize: 209
OS2StrikeYPos: 2529
OS2Vendor: 'newt'
OS2CodePages: 00000001.00000000
OS2UnicodeRanges: 00000001.00000000.00000000.00000000
DEI: 91125
LangName: 1033 "" "" "" "1.000;newt;BenchTwelve-Regular" "" "Version 1.000;PS (version unavailable);hotconv 1.0.57;makeotf.lib2.0.21895 DEVELOPMENT" 
PickledData: "(dp1
S'com.typemytype.robofont.compileSettings.autohint'
p2
I01
sS'com.typemytype.robofont.compileSettings.decompose'
p3
I01
sS'com.typemytype.robofont.foreground.layerStrokeColor'
p4
(F0.5
F0
F0.5
F0.69999999999999996
tp5
sS'com.typemytype.robofont.guides'
p6
((dp7
S'angle'
p8
I0
sS'name'
p9
NsS'magnetic'
p10
I5
sS'isGlobal'
p11
I1
sS'y'
I-13
sS'x'
I502
s(dp12
g8
I0
sg9
Nsg10
I5
sg11
I1
sS'y'
I1018
sS'x'
I347
s(dp13
g8
I0
sg9
Nsg10
I5
sg11
I1
sS'y'
I1388
sS'x'
I427
s(dp14
g8
I0
sg9
Nsg10
I5
sg11
I1
sS'y'
I1451
sS'x'
I424
s(dp15
g8
I0
sg9
Nsg10
I5
sg11
I1
sS'y'
I51
sS'x'
I449
stp16
sS'com.typemytype.robofont.compileSettings.releaseMode'
p17
I00

StartChar: .notdef
Encoding: 65536 -1 0
Width: 349
VWidth: 0
Flags: HW
LayerCount: 2
Fore
SplineSet
35 -299 m 1
 314 -299 l 1
 314 1475 l 1
 35 1475 l 1
 35 -299 l 1
70 -197 m 1
 70 1373 l 1
 280 1373 l 1
 280 -197 l 1
 70 -197 l 1
EndSplineSet
EndChar

StartChar: A
Encoding: 33 65 1
Width: 739
VWidth: 0
Flags: HW
PickledData: "(dp1
S'com.typemytype.robofont.layerData'
p2
(dp3
S'b'
(dp4
S'name'
p5
S'A'
sS'lib'
p6
(dp7
sS'unicodes'
p8
(tsS'width'
p9
F739.653061224
sS'contours'
p10
(tsS'components'
p11
(tsS'anchors'
p12
(tsss."
LayerCount: 2
Fore
SplineSet
226.653061224 420 m 2
 220.653061224 420 217.653061224 425 217.653061224 427 c 0
 217.653061224 428 217.653061224 431 218.653061224 436 c 2
 375 1331 l 1
 375 1331 375 1333 377 1333 c 1
 377 1333 377 1332 378 1331 c 2
 524.653061224 430 l 1
 526.653061224 429 526.653061224 427 526.653061224 425 c 0
 526.653061224 423 526.653061224 420 524.653061224 420 c 2
 226.653061224 420 l 2
73.6530612245 0 m 2
 100.653061224 0 l 2
 118.653061224 0 128.653061224 10 137.653061224 53 c 2
 194.653061224 354 l 1
 197.653061224 360 l 1
 541.653061224 360 l 1
 545.653061224 355 l 1
 594.653061224 53 l 2
 601.653061224 9 621.653061224 0 637.653061224 0 c 2
 666.653061224 0 l 2
 676.653061224 0 681.653061224 11 681.653061224 31 c 0
 681.653061224 41 676.653061224 39 674.653061224 53 c 2
 435.034061224 1380 l 2
 428.293061224 1421 415.543061224 1435 399.813061224 1438 c 1
 353.745061224 1438 l 1
 338.015061224 1435 326.045061224 1421 318.180061224 1380 c 2
 59.6530612245 53 l 2
 56.6530612245 39 58.6530612245 42 58.6530612245 32 c 0
 58.6530612245 11 64.6530612245 0 73.6530612245 0 c 2
EndSplineSet
EndChar

StartChar: B
Encoding: 34 66 3
Width: 847
VWidth: 0
Flags: HW
PickledData: "(dp1
S'com.typemytype.robofont.layerData'
p2
(dp3
S'b'
(dp4
S'name'
p5
S'B'
sS'lib'
p6
(dp7
sS'unicodes'
p8
(tsS'width'
p9
I847
sS'contours'
p10
(tsS'components'
p11
(tsS'anchors'
p12
(tsss."
LayerCount: 2
Fore
SplineSet
196 795 m 2
 188 795 182 795 182 810 c 2
 182 1358 l 2
 182 1378 188 1378 196 1378 c 2
 430 1378 l 2
 597 1378 669 1276 669 1046 c 0
 669 876 591 795 486 795 c 2
 196 795 l 2
196 60 m 2
 188 60 182 60 182 75 c 2
 182 718 l 2
 182 737 188 737 196 737 c 2
 479 737 l 2
 603 737 709 623 709 417 c 0
 709 187 640 60 419 60 c 2
 196 60 l 2
131 0 m 2
 404 0 l 2
 661 0 787 96 787 424 c 0
 787 590 720 703 623 758 c 0
 619 760 615 763 615 765 c 0
 615 766 617 769 622 772 c 0
 715 826 747 932 747 1043 c 0
 747 1342 621 1438 426 1438 c 2
 131 1438 l 2
 115 1438 104 1438 104 1399 c 2
 104 37 l 2
 104 0 115 0 131 0 c 2
EndSplineSet
EndChar

StartChar: C
Encoding: 35 67 4
Width: 660
VWidth: 0
Flags: HW
PickledData: "(dp1
S'com.typemytype.robofont.layerData'
p2
(dp3
S'b'
(dp4
S'name'
p5
S'C'
sS'lib'
p6
(dp7
sS'unicodes'
p8
(tsS'width'
p9
I660
sS'contours'
p10
(tsS'components'
p11
(tsS'anchors'
p12
(tsss."
LayerCount: 2
Fore
SplineSet
432 -13 m 0
 463 -13 520 -9 563 6 c 0
 567 8 570 10 570 15 c 2
 570 63 l 2
 570 68 567 72 563 71 c 0
 530 60 469 51 433 51 c 0
 286 51 168 120 168 721 c 0
 168 1317 310 1388 453 1388 c 0
 524 1388 583 1363 585 1363 c 0
 589 1363 592 1364 592 1372 c 2
 592 1413 l 2
 592 1422 584 1426 580 1428 c 0
 554 1439 506 1451 444 1451 c 0
 273 1451 90 1383 90 721 c 0
 90 22 277 -13 432 -13 c 0
EndSplineSet
EndChar

StartChar: D
Encoding: 36 68 5
Width: 883
VWidth: 0
Flags: HW
PickledData: "(dp1
S'com.typemytype.robofont.layerData'
p2
(dp3
S'b'
(dp4
S'name'
p5
S'D'
sS'lib'
p6
(dp7
sS'unicodes'
p8
(tsS'width'
p9
I883
sS'contours'
p10
(tsS'components'
p11
(tsS'anchors'
p12
(tsss."
LayerCount: 2
Fore
SplineSet
126 0 m 2
 412 0 l 2
 693 0 796 141 796 721 c 0
 796 1293 653 1438 412 1438 c 2
 126 1438 l 2
 112 1438 104 1434 104 1411 c 2
 104 37 l 2
 104 4 112 0 126 0 c 2
193 60 m 2
 185 60 182 64 182 78 c 2
 182 1364 l 2
 182 1374 186 1378 192 1378 c 2
 412 1378 l 2
 646 1378 718 1162 718 721 c 0
 718 222 663 60 412 60 c 2
 193 60 l 2
EndSplineSet
EndChar

StartChar: E
Encoding: 37 69 6
Width: 660
VWidth: 0
Flags: HW
PickledData: "(dp1
S'com.typemytype.robofont.layerData'
p2
(dp3
S'b'
(dp4
S'name'
p5
S'E'
sS'lib'
p6
(dp7
sS'unicodes'
p8
(tsS'width'
p9
I660
sS'contours'
p10
(tsS'components'
p11
(tsS'anchors'
p12
(tsss."
LayerCount: 2
Fore
SplineSet
126 0 m 2
 567 0 l 2
 581 0 589 0 589 27 c 2
 589 33 l 2
 589 60 581 60 567 60 c 2
 182 60 l 1
 182 699 l 1
 187 716 l 1
 521 716 l 2
 536 716 544 716 544 743 c 2
 544 750 l 2
 544 775 536 775 521 775 c 2
 186 775 l 1
 182 783 l 1
 182 1353 l 2
 182 1373 183 1378 191 1378 c 2
 566 1378 l 2
 580 1378 588 1378 588 1405 c 2
 588 1411 l 2
 588 1438 580 1438 566 1438 c 2
 126 1438 l 2
 112 1438 104 1433 104 1406 c 2
 104 32 l 2
 104 0 112 0 126 0 c 2
EndSplineSet
EndChar

StartChar: F
Encoding: 38 70 10
Width: 611
VWidth: 0
Flags: HW
PickledData: "(dp1
S'com.typemytype.robofont.guides'
p2
(tsS'com.typemytype.robofont.layerData'
p3
(dp4
S'b'
(dp5
S'name'
p6
S'F'
sS'lib'
p7
(dp8
sS'unicodes'
p9
(tsS'width'
p10
I611
sS'contours'
p11
(tsS'components'
p12
(tsS'anchors'
p13
(tsss."
LayerCount: 2
Fore
SplineSet
126 0 m 2
 159 0 l 2
 174 0 182 0 182 32 c 2
 182 699 l 1
 187 716 l 1
 505 716 l 2
 520 716 528 716 528 743 c 2
 528 750 l 2
 528 775 520 775 505 775 c 2
 186 775 l 1
 182 783 l 1
 182 1353 l 2
 182 1373 183 1378 191 1378 c 2
 550 1378 l 2
 564 1378 572 1378 572 1405 c 2
 572 1411 l 2
 572 1438 564 1438 550 1438 c 2
 126 1438 l 2
 112 1438 104 1433 104 1406 c 2
 104 32 l 2
 104 0 112 0 126 0 c 2
EndSplineSet
EndChar

StartChar: G
Encoding: 39 71 11
Width: 836
VWidth: 0
Flags: HW
PickledData: "(dp1
S'com.typemytype.robofont.layerData'
p2
(dp3
S'b'
(dp4
S'name'
p5
S'G'
sS'lib'
p6
(dp7
sS'unicodes'
p8
(tsS'width'
p9
I836
sS'contours'
p10
(tsS'components'
p11
(tsS'anchors'
p12
(tsss."
LayerCount: 2
Fore
SplineSet
730 -15 m 0
 745 -15 753 -8 753 35 c 2
 753 683 l 2
 753 726 742 717 727 717 c 2
 462 717 l 2
 447 717 433 717 433 685 c 2
 433 674 l 2
 433 642 449 642 465 642 c 2
 667 642 l 2
 673 642 675 633 675 563 c 0
 675 294 635 51 460 51 c 0
 320 51 168 120 168 721 c 0
 168 1351 347.776 1388 508.451 1388 c 0
 588.226 1388 656.766 1362 659.013 1362 c 0
 663.508 1362 666.878 1363 666.878 1371 c 2
 666.878 1412 l 2
 666.878 1421 657.89 1425 653.395 1427 c 0
 624.182 1437 575.867 1451 498.338 1451 c 0
 306.203 1451 90 1412 90 721 c 0
 90 62 283 -13 458 -13 c 0
 572 -13 659 82 686 232 c 0
 687 238 689 238 691 238 c 0
 692 238 693 236 693 232 c 0
 693 179 699 65 702 35 c 0
 706 -8 715 -15 730 -15 c 0
EndSplineSet
EndChar

StartChar: H
Encoding: 40 72 12
Width: 851
VWidth: 0
Flags: HW
PickledData: "(dp1
S'com.typemytype.robofont.layerData'
p2
(dp3
S'b'
(dp4
S'name'
p5
S'H'
sS'lib'
p6
(dp7
sS'unicodes'
p8
(tsS'width'
p9
F851.83399999999995
sS'contours'
p10
(tsS'components'
p11
(tsS'anchors'
p12
(tsss."
LayerCount: 2
Fore
SplineSet
128 0 m 2
 156 0 l 2
 172 0 182 4 182 47 c 2
 182 681 l 1
 187 697 l 1
 662 697 l 1
 669 679 l 1
 669 47 l 2
 669 4 679 0 696 0 c 2
 725.834 0 l 2
 739.834 0 747.834 4 747.834 47 c 2
 747.834 1391 l 2
 747.834 1434 739.834 1438 725.834 1438 c 2
 696 1438 l 2
 679 1438 669 1434 669 1391 c 2
 669 783 l 1
 661 765 l 1
 186 765 l 1
 182 780 l 1
 182 1391 l 2
 182 1434 172 1438 156 1438 c 2
 128 1438 l 2
 112 1438 104 1434 104 1391 c 2
 104 47 l 2
 104 4 112 0 128 0 c 2
EndSplineSet
EndChar

StartChar: I
Encoding: 41 73 13
Width: 289
VWidth: 0
Flags: HW
PickledData: "(dp1
S'com.typemytype.robofont.layerData'
p2
(dp3
S'b'
(dp4
S'name'
p5
S'I'
sS'lib'
p6
(dp7
sS'unicodes'
p8
(tsS'width'
p9
I289
sS'contours'
p10
(tsS'components'
p11
(tsS'anchors'
p12
(tsss."
LayerCount: 2
Fore
SplineSet
131 0 m 2
 164 0 l 2
 179 0 187 4 187 47 c 2
 187 1391 l 2
 187 1434 179 1438 164 1438 c 2
 131 1438 l 2
 117 1438 109 1434 109 1391 c 2
 109 47 l 2
 109 4 117 0 131 0 c 2
EndSplineSet
EndChar

StartChar: J
Encoding: 42 74 14
Width: 443
VWidth: 0
Flags: HW
PickledData: "(dp1
S'com.typemytype.robofont.layerData'
p2
(dp3
S'b'
(dp4
S'name'
p5
S'J'
sS'lib'
p6
(dp7
sS'unicodes'
p8
(tsS'width'
p9
I443
sS'contours'
p10
(tsS'components'
p11
(tsS'anchors'
p12
(tsss."
LayerCount: 2
Fore
SplineSet
17 -141 m 0
 230 -141 331 -137 331 371 c 2
 331 1383 l 2
 331 1426 323 1438 308 1438 c 2
 276 1438 l 2
 261 1438 253 1426 253 1383 c 2
 253 371 l 2
 253 -66 198 -75 17 -75 c 0
 12 -75 6 -75 6 -99 c 2
 6 -118 l 2
 6 -141 11 -141 17 -141 c 0
EndSplineSet
EndChar

StartChar: K
Encoding: 43 75 15
Width: 664
VWidth: 0
Flags: HW
PickledData: "(dp1
S'com.typemytype.robofont.layerData'
p2
(dp3
S'b'
(dp4
S'name'
p5
S'K'
sS'lib'
p6
(dp7
sS'unicodes'
p8
(tsS'width'
p9
F664.19390788600003
sS'contours'
p10
(tsS'components'
p11
(tsS'anchors'
p12
(tsss."
LayerCount: 2
Fore
SplineSet
126 0 m 2
 156 0 l 2
 173 0 183 18 183 61 c 2
 183 721 l 1
 557 60 l 2
 585 12 595 0 611 0 c 2
 644 0 l 2
 659 0 662 22 634 72 c 2
 267 725 l 2
 264 730 264 734 264 737 c 0
 264 742 266 746 266 748 c 2
 612 1378 l 2
 629 1410 632 1438 617 1438 c 2
 561 1438 l 2
 544 1438 534 1410 518 1376 c 1
 182 751 l 1
 182 1371 l 2
 182 1414 173 1438 156 1438 c 2
 126 1438 l 2
 112 1438 104 1414 104 1371 c 2
 104 67 l 2
 104 24 112 0 126 0 c 2
EndSplineSet
EndChar

StartChar: L
Encoding: 44 76 16
Width: 540
VWidth: 0
Flags: HW
PickledData: "(dp1
S'com.typemytype.robofont.layerData'
p2
(dp3
S'b'
(dp4
S'name'
p5
S'L'
sS'lib'
p6
(dp7
sS'unicodes'
p8
(tsS'width'
p9
I540
sS'contours'
p10
(tsS'components'
p11
(tsS'anchors'
p12
(tsss."
LayerCount: 2
Fore
SplineSet
126 0 m 2
 462 0 l 2
 475 0 485 0 485 27 c 2
 485 35 l 2
 485 60 475 60 462 60 c 2
 196 60 l 2
 188 60 182 58 182 78 c 2
 182 1391 l 2
 182 1434 174 1438 159 1438 c 2
 126 1438 l 2
 112 1438 104 1434 104 1391 c 2
 104 47 l 2
 104 4 112 0 126 0 c 2
EndSplineSet
EndChar

StartChar: M
Encoding: 45 77 17
Width: 1003
VWidth: 0
Flags: HW
PickledData: "(dp1
S'com.typemytype.robofont.layerData'
p2
(dp3
S'b'
(dp4
S'name'
p5
S'M'
sS'lib'
p6
(dp7
sS'unicodes'
p8
(tsS'width'
p9
F1003.01438702
sS'contours'
p10
(tsS'components'
p11
(tsS'anchors'
p12
(tsss."
LayerCount: 2
Fore
SplineSet
125.075637021 0 m 2
 151 0 l 2
 165 0 169 24 170 67 c 2
 206 1291 l 1
 209 1295 l 1
 445.863637021 67 l 1
 454.851637021 26 468.335637021 0 482.941637021 0 c 2
 511.941637021 1 l 2
 526.548637021 1 542.279637021 26 551.267637021 67 c 1
 791 1308 l 1
 796 1307 l 1
 829.920637021 67 l 2
 830.920637021 24 839.920637021 0 854.920637021 0 c 2
 878.920637021 0 l 2
 893.920637021 0 900.920637021 24 899.920637021 67 c 2
 857.965637021 1371 l 2
 856.965637021 1412 850.965637021 1435 836.965637021 1438 c 1
 777 1438 l 1
 763 1435 749 1412 739 1371 c 1
 502 123 l 1
 494 123 l 1
 253 1381 l 1
 243 1422 226 1435 211 1438 c 1
 165.075637021 1438 l 1
 151.075637021 1435 144.075637021 1412 143.075637021 1371 c 2
 103.075637021 67 l 2
 102.075637021 24 111.075637021 0 125.075637021 0 c 2
EndSplineSet
EndChar

StartChar: N
Encoding: 46 78 18
Width: 857
VWidth: 0
Flags: HW
PickledData: "(dp1
S'com.typemytype.robofont.layerData'
p2
(dp3
S'b'
(dp4
S'name'
p5
S'N'
sS'lib'
p6
(dp7
sS'unicodes'
p8
(tsS'width'
p9
F857.18200000000002
sS'contours'
p10
(tsS'components'
p11
(tsS'anchors'
p12
(tsss."
LayerCount: 2
Fore
SplineSet
128 0 m 2
 152 0 l 2
 168 0 178 14 178 57 c 2
 178 1190 l 1
 182 1199 l 1
 679 44 l 2
 684 31 702.193 0 711.182 0 c 2
 730.182 0 l 2
 745.182 0 753.182 4 753.182 47 c 2
 753.182 1391 l 2
 753.182 1434 745.182 1438 730.182 1438 c 2
 704 1438 l 2
 687 1438 678 1434 678 1391 c 2
 678 222 l 1
 674 209 l 1
 163.989 1420 l 2
 158.371 1432 153 1438 145 1438 c 2
 128 1438 l 2
 112 1438 104 1434 104 1391 c 2
 104 57 l 2
 104 14 112 0 128 0 c 2
EndSplineSet
EndChar

StartChar: O
Encoding: 47 79 19
Width: 846
VWidth: 0
Flags: HW
PickledData: "(dp1
S'com.typemytype.robofont.guides'
p2
(tsS'com.typemytype.robofont.layerData'
p3
(dp4
S'b'
(dp5
S'name'
p6
S'O'
sS'lib'
p7
(dp8
sS'unicodes'
p9
(tsS'width'
p10
I846
sS'contours'
p11
(tsS'components'
p12
(tsS'anchors'
p13
(tsss."
LayerCount: 2
Fore
SplineSet
422 -13 m 0
 674 -13 756 125 756 724 c 0
 756 1276 673.946 1451 422.26 1451 c 0
 173.944 1451 90 1266 90 724 c 0
 90 135 174 -13 422 -13 c 0
422.26 51 m 0
 237.989 51 168 168 168 724 c 0
 168 1212 233.495 1388 422.26 1388 c 0
 613.272 1388 678 1233 678 724 c 0
 678 154 608.777 51 422.26 51 c 0
EndSplineSet
EndChar

StartChar: OE
Encoding: 264 338 20
Width: 1086
VWidth: 0
Flags: HW
PickledData: "(dp1
S'com.typemytype.robofont.layerData'
p2
(dp3
S'b'
(dp4
S'name'
p5
S'OE'
p6
sS'lib'
p7
(dp8
sS'unicodes'
p9
(tsS'width'
p10
F1086
sS'contours'
p11
(tsS'components'
p12
(tsS'anchors'
p13
(tsss."
LayerCount: 2
Fore
SplineSet
524 59 m 2
 211 59 168 454 168 721 c 0
 168 988 211 1378 524 1378 c 2
 576 1378 l 2
 583 1378 589 1361 589 1341 c 2
 589 96 l 2
 589 76 583 59 576 59 c 2
 524 59 l 2
560 0 m 0
 588 0 974 0 1013 0 c 0
 1027 0 1039 -1 1039 24 c 2
 1039 37 l 2
 1039 60 1027 60 1013 60 c 2
 681 60 l 2
 674 60 669 77 669 97 c 2
 669 714 l 2
 669 734 674 741 681 741 c 2
 921 741 l 2
 937 741 949 742 949 765 c 2
 949 774 l 2
 949 797 937 801 921 801 c 2
 681 801 l 2
 674 801 669 808 669 828 c 2
 669 1341 l 2
 669 1361 674 1378 681 1378 c 2
 987 1378 l 2
 1002 1378 1013 1382 1013 1405 c 2
 1013 1411 l 2
 1013 1433 1001 1438 987 1438 c 2
 529 1438 l 2
 332 1438 90 1291 90 721 c 0
 90 70 359 0 560 0 c 0
EndSplineSet
EndChar

StartChar: P
Encoding: 48 80 22
Width: 765
VWidth: 0
Flags: HW
PickledData: "(dp1
S'com.typemytype.robofont.layerData'
p2
(dp3
S'b'
(dp4
S'name'
p5
S'P'
sS'lib'
p6
(dp7
sS'unicodes'
p8
(tsS'width'
p9
I765
sS'contours'
p10
(tsS'components'
p11
(tsS'anchors'
p12
(tsss."
LayerCount: 2
Fore
SplineSet
187 618 m 2
 182 618 182 623 182 628 c 2
 182 1369 l 2
 182 1375 184 1378 188 1378 c 2
 332 1378 l 2
 500 1378 628 1368 628 994 c 0
 628 648 535 618 363 618 c 2
 187 618 l 2
126 0 m 2
 159 0 l 2
 174 0 182 6 182 42 c 2
 182 546 l 2
 182 554 184 558 189 558 c 2
 365 558 l 2
 547 558 705 578 705 994 c 0
 705 1429 520 1438 332 1438 c 2
 126 1438 l 2
 112 1438 104 1436 104 1393 c 2
 104 42 l 2
 104 5 112 0 126 0 c 2
EndSplineSet
EndChar

StartChar: Q
Encoding: 49 81 23
Width: 926
VWidth: 0
Flags: HW
PickledData: "(dp1
S'com.typemytype.robofont.layerData'
p2
(dp3
S'b'
(dp4
S'name'
p5
S'Q'
sS'lib'
p6
(dp7
sS'unicodes'
p8
(tsS'width'
p9
I926
sS'contours'
p10
(tsS'components'
p11
(tsS'anchors'
p12
(tsss."
LayerCount: 2
Fore
SplineSet
462.26 51 m 0
 277.989 51 168 128 168 724 c 0
 168 1252 273.495 1388 462.26 1388 c 0
 653.272 1388 758 1273 758 724 c 0
 758 114 648.777 51 462.26 51 c 0
672.373 -333 m 0
 701.586 -324 692.598 -316 682.485 -282 c 2
 601.586 4 l 1
 761.643 53 835.643 216 835.643 724 c 0
 835.643 1316 713.946 1451 462.26 1451 c 0
 213.944 1451 90 1306 90 724 c 0
 90 95 213.944 -13 462.26 -13 c 0
 483.608 -13 516 -10 526 -7 c 1
 610.575 -305 l 2
 617 -327 623.315 -336.95075 632.460125 -339.784375 c 0
 641.60525 -342.618 653.755 -338.5235 672.373 -333 c 0
EndSplineSet
EndChar

StartChar: R
Encoding: 50 82 24
Width: 850
VWidth: 0
Flags: HW
PickledData: "(dp1
S'com.typemytype.robofont.layerData'
p2
(dp3
S'b'
(dp4
S'name'
p5
S'R'
sS'lib'
p6
(dp7
sS'unicodes'
p8
(tsS'width'
p9
I850
sS'contours'
p10
(tsS'components'
p11
(tsS'anchors'
p12
(tsss."
LayerCount: 2
Fore
SplineSet
188 788 m 2
 182 788 182 793 182 798 c 2
 182 1369 l 2
 182 1375 184 1378 189 1378 c 2
 357 1378 l 2
 546 1378 677 1358 677 1094 c 0
 677 827 577 788 384 788 c 2
 188 788 l 2
126 0 m 2
 159 0 l 2
 176 0 182 6 182 42 c 2
 182 716 l 2
 182 724 184 728 190 728 c 2
 386 728 l 2
 421 728 425 726 457 729 c 1
 542 729 673 694 673 489 c 2
 673 56 l 2
 673 16 679 0 695 0 c 2
 723 0 l 2
 736 0 748 15 748 56 c 2
 748 491 l 2
 748 697 647 722 574 755 c 0
 570 756 569 758 569 760 c 0
 569 763 572 766 576 768 c 0
 685 815 755 897 755 1094 c 0
 755 1425 568 1438 357 1438 c 2
 126 1438 l 2
 112 1438 104 1436 104 1393 c 2
 104 42 l 2
 104 5 112 0 126 0 c 2
EndSplineSet
EndChar

StartChar: S
Encoding: 51 83 25
Width: 727
VWidth: 0
Flags: HW
PickledData: "(dp1
S'com.typemytype.robofont.layerData'
p2
(dp3
S'b'
(dp4
S'name'
p5
S'S'
sS'lib'
p6
(dp7
sS'unicodes'
p8
(tsS'width'
p9
F727.90775500400002
sS'contours'
p10
((dp11
S'points'
p12
((dp13
S'segmentType'
p14
S'curve'
p15
sS'x'
F354.90775500425627
sS'smooth'
p16
I01
sS'y'
F-13
s(dp17
S'y'
F-13
sS'x'
F554.90775500425616
sg16
I00
s(dp18
S'y'
F145
sS'x'
F661.90775500425616
sg16
I00
s(dp19
g14
S'curve'
p20
sS'x'
F661.90775500425616
sg16
I01
sS'y'
F371
s(dp21
S'y'
F593
sS'x'
F661.90775500425616
sg16
I00
s(dp22
S'y'
F706
sS'x'
F591.90775500425616
sg16
I00
s(dp23
g14
S'curve'
p24
sS'x'
F417.90775500425627
sg16
I01
sS'y'
F773
s(dp25
S'y'
F854
sS'x'
F206.9077550042563
sg16
I00
s(dp26
S'y'
F920
sS'x'
F165.9077550042563
sg16
I00
s(dp27
g14
S'curve'
p28
sS'x'
F174.9077550042563
sg16
I01
sS'y'
F1102
s(dp29
S'y'
F1291
sS'x'
F183.9077550042563
sg16
I00
s(dp30
S'y'
F1388
sS'x'
F269.90775500425627
sg16
I00
s(dp31
g14
S'curve'
p32
sS'x'
F393.90775500425627
sg16
I01
sS'y'
F1388
s(dp33
S'y'
F1388
sS'x'
F487.90775500425627
sg16
I00
s(dp34
S'y'
F1363
sS'x'
F545.90775500425616
sg16
I00
s(dp35
g14
S'curve'
p36
sS'x'
F597.90775500425616
sg16
I01
sS'y'
F1322
s(dp37
S'y'
F1321
sS'x'
F598.90775500425616
sg16
I00
s(dp38
S'y'
F1321
sS'x'
F599.90775500425616
sg16
I00
s(dp39
g14
S'curve'
p40
sS'x'
F600.90775500425616
sg16
I01
sS'y'
F1321
s(dp41
S'y'
F1321
sS'x'
F611.90775500425616
sg16
I00
s(dp42
S'y'
F1346
sS'x'
F626.90775500425616
sg16
I00
s(dp43
g14
S'curve'
p44
sS'x'
F626.90775500425616
sg16
I01
sS'y'
F1364
s(dp45
S'y'
F1369
sS'x'
F626.90775500425616
sg16
I00
s(dp46
S'y'
F1373
sS'x'
F625.90775500425616
sg16
I00
s(dp47
g14
S'curve'
p48
sS'x'
F623.90775500425616
sg16
I01
sS'y'
F1376
s(dp49
S'y'
F1427
sS'x'
F566.90775500425616
sg16
I00
s(dp50
S'y'
F1451
sS'x'
F486.90775500425627
sg16
I00
s(dp51
g14
S'curve'
p52
sS'x'
F393.90775500425627
sg16
I01
sS'y'
F1451
s(dp53
S'y'
F1451
sS'x'
F241.9077550042563
sg16
I00
s(dp54
S'y'
F1341
sS'x'
F108.90775500425623
sg16
I00
s(dp55
g14
S'curve'
p56
sS'x'
F101.90775500425623
sg16
I01
sS'y'
F1099
s(dp57
S'y'
F872
sS'x'
F94.907755004256231
sg16
I00
s(dp58
S'y'
F789
sS'x'
F176.9077550042563
sg16
I00
s(dp59
g14
S'curve'
p60
sS'x'
F402.90775500425627
sg16
I01
sS'y'
F703
s(dp61
S'y'
F635
sS'x'
F582.90775500425616
sg16
I00
s(dp62
S'y'
F514
sS'x'
F588.90775500425616
sg16
I00
s(dp63
g14
S'curve'
p64
sS'x'
F588.90775500425616
sg16
I01
sS'y'
F359
s(dp65
S'y'
F171
sS'x'
F588.90775500425616
sg16
I00
s(dp66
S'y'
F51
sS'x'
F505.90775500425627
sg16
I00
s(dp67
g14
S'curve'
p68
sS'x'
F361.90775500425627
sg16
I01
sS'y'
F51
s(dp69
S'y'
F51
sS'x'
F190.9077550042563
sg16
I00
s(dp70
S'y'
F111
sS'x'
F144.9077550042563
sg16
I00
s(dp71
g14
S'curve'
p72
sS'x'
F123.90775500425626
sg16
I01
sS'y'
F111
s(dp73
S'y'
F111
sS'x'
F113.90775500425623
sg16
I00
s(dp74
S'y'
F111
sS'x'
F105.90775500425623
sg16
I00
s(dp75
g14
S'curve'
p76
sS'x'
F101.90775500425623
sg16
I00
sS'y'
F89
s(dp77
g14
S'line'
p78
sS'x'
F101.90775500425623
sg16
I01
sS'y'
F79
s(dp79
S'y'
F68
sS'x'
F101.90775500425623
sg16
I00
s(dp80
S'y'
F64
sS'x'
F98.907755004256231
sg16
I00
s(dp81
g14
S'curve'
p82
sS'x'
F106.90775500425623
sg16
I01
sS'y'
F54
s(dp83
S'y'
F21
sS'x'
F132.9077550042563
sg16
I00
s(dp84
S'y'
F-13
sS'x'
F229.9077550042563
sg16
I00
stp85
stp86
sS'components'
p87
(tsS'anchors'
p88
(tsss."
LayerCount: 2
Fore
SplineSet
52 170 m 0
 125 46 227.938503336 -13 361.938503336 -13 c 0
 546.938503336 -13 662.907755004 152 662.907755004 367 c 0
 662.907755004 583 566.907755004 667 463.907755004 737 c 2
 324.907755004 831 l 2
 256.907755004 878 171.907755004 947 171.907755004 1109 c 0
 171.907755004 1263 241.938503336 1384 370.938503336 1388 c 0
 463.938503336 1391 540 1349 595 1279 c 0
 609 1262 663 1297 637 1333 c 1
 575 1410 484.938503336 1455 367.938503336 1451 c 0
 201.938503336 1445 95.9077550042 1305 95.9077550042 1102 c 0
 95.9077550042 893 206.907755004 809 286.907755004 756 c 1
 427.907755004 660 l 2
 518.907755004 598 587 536 586.907755004 360 c 0
 587 174 498 51 358 51 c 0
 250 51 179 91 104 211 c 1
 91 236 33 204 52 170 c 0
EndSplineSet
EndChar

StartChar: T
Encoding: 52 84 26
Width: 569
VWidth: 0
Flags: HW
PickledData: "(dp1
S'com.typemytype.robofont.layerData'
p2
(dp3
S'b'
(dp4
S'name'
p5
S'T'
sS'lib'
p6
(dp7
sS'unicodes'
p8
(tsS'width'
p9
I569
sS'contours'
p10
(tsS'components'
p11
(tsS'anchors'
p12
(tsss."
LayerCount: 2
Fore
SplineSet
272 0 m 2
 304 0 l 2
 319 0 327 4 327 47 c 2
 327 1346 l 2
 327 1366 330 1371 337 1371 c 2
 516 1371 l 2
 532 1371 539 1371 539 1398 c 2
 539 1404 l 2
 539 1438 532 1438 516 1438 c 2
 59 1438 l 2
 44 1438 36 1438 36 1404 c 2
 36 1398 l 2
 36 1371 44 1371 59 1371 c 2
 240 1371 l 2
 247 1371 249 1366 249 1346 c 2
 249 47 l 2
 249 4 257 0 272 0 c 2
EndSplineSet
EndChar

StartChar: U
Encoding: 53 85 27
Width: 902
VWidth: 0
Flags: HW
PickledData: "(dp1
S'com.typemytype.robofont.layerData'
p2
(dp3
S'b'
(dp4
S'name'
p5
S'U'
sS'lib'
p6
(dp7
sS'unicodes'
p8
(tsS'width'
p9
I902
sS'contours'
p10
(tsS'components'
p11
(tsS'anchors'
p12
(tsss."
LayerCount: 2
Fore
SplineSet
461 -13 m 0
 679 -13 803 46 803 608 c 2
 803 1391 l 2
 803 1434 795 1438 781 1438 c 2
 748 1438 l 2
 733 1438 725 1434 725 1391 c 2
 725 608 l 2
 725 99 644 51 460 51 c 0
 279 51 177 106 177 608 c 2
 177 1391 l 2
 177 1434 168 1438 154 1438 c 2
 122 1438 l 2
 107 1438 99 1434 99 1391 c 2
 99 608 l 2
 99 45 240 -13 461 -13 c 0
EndSplineSet
EndChar

StartChar: V
Encoding: 54 86 28
Width: 717
VWidth: 0
Flags: HW
PickledData: "(dp1
S'com.typemytype.robofont.layerData'
p2
(dp3
S'b'
(dp4
S'name'
p5
S'V'
sS'lib'
p6
(dp7
sS'unicodes'
p8
(tsS'width'
p9
F717.55985598400002
sS'contours'
p10
(tsS'components'
p11
(tsS'anchors'
p12
(tsss."
LayerCount: 2
Fore
SplineSet
350.522025188 0 m 1
 387.522025188 0 l 1
 402.522025188 3 412.522025188 16 419.522025188 57 c 2
 654.522025188 1371 l 2
 662.522025188 1414 658.522025188 1438 643.522025188 1438 c 2
 609 1438 l 2
 594 1438 585 1419 578 1376 c 2
 371 121 l 1
 143 1376 l 2
 135 1419 124 1438 110 1438 c 2
 73.5215251875 1438 l 2
 59.5215251875 1438 54.5215251875 1414 63.5215251875 1371 c 2
 315.522025188 57 l 1
 324.522025188 16 337.522025188 3 350.522025188 0 c 1
EndSplineSet
EndChar

StartChar: W
Encoding: 55 87 29
Width: 1162
VWidth: 0
Flags: HW
PickledData: "(dp1
S'com.typemytype.robofont.layerData'
p2
(dp3
S'b'
(dp4
S'name'
p5
S'W'
sS'lib'
p6
(dp7
sS'unicodes'
p8
(tsS'width'
p9
F1162.3957013700001
sS'contours'
p10
(tsS'components'
p11
(tsS'anchors'
p12
(tsss."
LayerCount: 2
Fore
SplineSet
293.521525188 0 m 1
 327.521525188 0 l 1
 342.521525188 3 348.521525188 26 355.521525188 67 c 2
 576.521525188 1324 l 1
 811.561550375 67 l 2
 819.521525188 25 832.910550375 3 849.764550375 0 c 1
 888.764550375 0 l 1
 902.764550375 3 913.764550375 26 919.764550375 67 c 2
 1099.52152519 1371 l 1
 1106.52152519 1414 1104.52152519 1438 1089.52152519 1438 c 2
 1056.52152519 1438 l 2
 1042.52152519 1438 1029.52152519 1414 1023.52152519 1371 c 2
 867.521525188 157 l 1
 639.521525188 1360 l 2
 631.521525188 1403 617.521525188 1413 600.521525188 1413 c 2
 551.521525188 1413 l 2
 537.521525188 1413 521.521525188 1403 513.521525188 1360 c 2
 311.521525188 192 l 1
 144.521525188 1371 l 2
 137.521525188 1414 123.521525188 1438 108.521525188 1438 c 2
 74.5215251875 1438 l 2
 60.5215251875 1438 55.5215251875 1414 64.5215251875 1371 c 1
 260.521525188 67 l 2
 267.521525188 26 279.521525188 3 293.521525188 0 c 1
EndSplineSet
EndChar

StartChar: X
Encoding: 56 88 30
Width: 766
VWidth: 0
Flags: HW
PickledData: "(dp1
S'com.typemytype.robofont.layerData'
p2
(dp3
S'b'
(dp4
S'name'
p5
S'X'
sS'lib'
p6
(dp7
sS'unicodes'
p8
(tsS'width'
p9
I766
sS'contours'
p10
(tsS'components'
p11
(tsS'anchors'
p12
(tsss."
LayerCount: 2
Fore
SplineSet
73 0 m 2
 97 0 l 2
 113.854 0 125 5 141.944 47 c 2
 391 678 l 1
 617.227 47 l 2
 633 4 646 0 663 0 c 2
 684 0 l 2
 695 0 701 9 701 24 c 0
 701 35 698 50 692 67 c 2
 443 746 l 1
 697 1383 l 2
 703 1397 704 1408 704 1416 c 0
 704 1431 698 1438 686 1438 c 2
 657.676 1438 l 2
 640.822 1438 625 1432 609.362 1390 c 2
 395 819 l 1
 184.641 1390 l 2
 169 1433 154.304 1438 137.45 1438 c 2
 102 1438 l 2
 95 1438 91 1432 91 1420 c 0
 91 1409 96 1392 102 1371 c 1
 341 748 l 1
 72 67 l 2
 64 47 62 31 62 20 c 0
 62 7 67 0 73 0 c 2
EndSplineSet
EndChar

StartChar: Y
Encoding: 57 89 31
Width: 606
VWidth: 0
Flags: HW
PickledData: "(dp1
S'com.typemytype.robofont.layerData'
p2
(dp3
S'b'
(dp4
S'name'
p5
S'Y'
sS'lib'
p6
(dp7
sS'unicodes'
p8
(tsS'width'
p9
I606
sS'contours'
p10
(tsS'components'
p11
(tsS'anchors'
p12
(tsss."
LayerCount: 2
Fore
SplineSet
288 0 m 2
 321 0 l 2
 336 0 343 10 343 53 c 2
 343 571 l 1
 557 1381 l 1
 563 1399 563 1407 563 1418 c 0
 563 1431 557 1438 542 1438 c 2
 523 1438 l 2
 507 1438 491 1425 485 1401 c 2
 306 689 l 1
 124 1401 l 2
 117 1430 98 1438 84 1438 c 2
 65 1438 l 2
 51 1438 43 1432 43 1420 c 0
 43 1409 44 1401 51 1381 c 1
 265 567 l 1
 265 53 l 2
 265 10 273 0 288 0 c 2
EndSplineSet
EndChar

StartChar: Z
Encoding: 58 90 32
Width: 614
VWidth: 0
Flags: HW
PickledData: "(dp1
S'com.typemytype.robofont.layerData'
p2
(dp3
S'b'
(dp4
S'name'
p5
S'Z'
sS'lib'
p6
(dp7
sS'unicodes'
p8
(tsS'width'
p9
I614
sS'contours'
p10
(tsS'components'
p11
(tsS'anchors'
p12
(tsss."
LayerCount: 2
Fore
SplineSet
103 0 m 2
 533 0 l 2
 546 0 555 0 555 27 c 2
 555 33 l 2
 555 60 546 60 533 60 c 2
 180 60 l 2
 174 60 173 66 173 74 c 0
 173 82 175 92 178 102 c 2
 536 1326 l 2
 540 1340 548 1363 548 1406 c 2
 548 1411 l 2
 548 1438 539 1438 525 1438 c 2
 107 1438 l 2
 92 1438 84 1438 84 1411 c 2
 84 1405 l 2
 84 1378 92 1378 107 1378 c 2
 452 1378 l 2
 460 1378 464 1369 464 1358 c 0
 464 1348 461 1337 458 1326 c 2
 87 69 l 2
 83 55 81 54 81 30 c 2
 81 27 l 2
 81 0 89 0 103 0 c 2
EndSplineSet
EndChar

StartChar: a
Encoding: 65 97 33
Width: 645
VWidth: 0
Flags: HW
PickledData: "(dp1
S'com.typemytype.robofont.layerData'
p2
(dp3
S'b'
(dp4
S'name'
p5
S'a'
sS'lib'
p6
(dp7
sS'unicodes'
p8
(tsS'width'
p9
I645
sS'contours'
p10
(tsS'components'
p11
(tsS'anchors'
p12
(tsss."
LayerCount: 2
Fore
SplineSet
281 50 m 0
 178 50 141 122 140 242 c 0
 139 374 179 500 403 540 c 0
 406 541 474 551 475 551 c 0
 481 551 481 507 481 493 c 0
 481 245 422 50 281 50 c 0
273 -12 m 0
 394 -12 456 85 488 238 c 0
 489 245 492 249 493 249 c 0
 496 249 497 246 498 235 c 0
 501 193 511 70 514 36 c 0
 516 15 524 -4 534 -4 c 2
 540 -4 l 2
 552 -4 558 10 558 45 c 2
 558 656 l 2
 558 905 498 1018 332 1018 c 0
 177 1018 128 931 93 821 c 0
 89 810 84 790 86 782 c 0
 89 766 102 762 119 758 c 0
 134 754 142 761 152 788 c 0
 186 884 212 957 334 957 c 0
 463 957 479 823 479 668 c 2
 479 608 l 1
 411 593 71 584 71 238 c 0
 71 92 126 -12 273 -12 c 0
EndSplineSet
EndChar

StartChar: acute
Encoding: 113 180 34
Width: 595
VWidth: 0
Flags: HW
LayerCount: 2
Fore
SplineSet
382 1166 m 2
 394 1166 l 2
 408 1166 411 1188 414 1205 c 2
 476 1533 l 2
 478 1545 480 1559 480 1570 c 0
 480 1586 477 1598 470 1598 c 2
 415 1598 l 2
 399 1598 392 1586 389 1543 c 2
 368 1233 l 2
 367 1219 367 1207 367 1198 c 0
 367 1171 372 1166 382 1166 c 2
EndSplineSet
EndChar

StartChar: ampersand
Encoding: 6 38 35
Width: 1027
VWidth: 0
Flags: HW
PickledData: "(dp1
S'org.robofab.postScriptHintData'
p2
(dp3
sS'com.typemytype.robofont.guides'
p4
(tsS'com.typemytype.robofont.layerData'
p5
(dp6
S'b'
(dp7
S'name'
p8
S'ampersand'
p9
sS'lib'
p10
(dp11
sS'unicodes'
p12
(tsS'width'
p13
F1027.5951262999999
sS'contours'
p14
(tsS'components'
p15
(tsS'anchors'
p16
(tsss."
LayerCount: 2
Fore
SplineSet
460 51 m 0
 379 51 213 102 213 407 c 0
 213 656 332 728 424 729 c 0
 498 729 597 730 670 729 c 0
 678 729 685 721 685 701 c 2
 685 445 l 2
 685 404 687 273 689 237 c 1
 689 218 674 51 460 51 c 0
865 -13 m 0
 917 -13 958 11 976 24 c 0
 992 36 995 46 991 58 c 2
 987 71 l 2
 981 90 967 90 955 81 c 0
 930 62 909 51 876 51 c 0
 822 51 763 100 763 313 c 2
 763 700 l 2
 763 720 769 729 777 729 c 2
 926 729 l 2
 944 729 957 731 957 764 c 2
 957 774 l 2
 957 805 944 804 926 804 c 2
 777 804 l 2
 769 804 763 814 763 834 c 2
 763 1354 l 2
 763 1397 753 1408 736 1408 c 2
 727 1408 l 2
 709 1408 697 1397 696 1354 c 2
 685 834 l 2
 685 814 678 804 670 804 c 2
 414 804 l 2
 286 804 211 914 211 1095 c 0
 211 1336 312 1395 412 1395 c 0
 467 1395 504 1378 514 1375 c 0
 518 1373 527 1369 530 1369 c 0
 537 1369 541 1379 541 1390 c 2
 541 1394 l 1
 541 1394 541 1407 541 1411 c 0
 541 1424 529 1434 513 1440 c 0
 497 1446 470 1459 387 1459 c 0
 258 1459 133 1370 133 1099 c 0
 133 871 241 782 322 761 c 1
 239 736 135 608 135 424 c 0
 135 86 284 -13 460 -13 c 0
 637 -13 706 88 722 131 c 1
 731 36 786 -13 865 -13 c 0
EndSplineSet
EndChar

StartChar: asciicircum
Encoding: 62 94 37
Width: 1030
VWidth: 0
Flags: HW
PickledData: "(dp1
S'com.typemytype.robofont.layerData'
p2
(dp3
S'b'
(dp4
S'name'
p5
S'asciicircum'
p6
sS'lib'
p7
(dp8
sS'unicodes'
p9
(tsS'width'
p10
F1030.9534641400001
sS'contours'
p11
(tsS'components'
p12
(tsS'anchors'
p13
(tsss."
LayerCount: 2
Fore
SplineSet
143.224930347 201 m 2
 179.224930347 201 185.224930347 215 204.224930347 270 c 2
 492.224930347 1093 l 2
 501.224930347 1118 504.224930347 1124 513.224930347 1124 c 0
 522.224930347 1124 525.224930347 1118 534.224930347 1093 c 2
 830.224930347 270 l 2
 850.224930347 215 860.224930347 201 886.224930347 201 c 2
 899.224930347 201 l 2
 935.224930347 201 931.224930347 239 920.224930347 269 c 2
 603.224930347 1139 l 1
 585.224930347 1182 573.224930347 1207 526.224930347 1207 c 2
 501.224930347 1207 l 2
 454.224930347 1207 439.224930347 1182 422.224930347 1140 c 1
 111.224930347 268 l 2
 99.2249303473 236 96.2249303473 201 131.224930347 201 c 2
 143.224930347 201 l 2
EndSplineSet
EndChar

StartChar: asciitilde
Encoding: 94 126 38
Width: 1399
VWidth: 0
Flags: HW
PickledData: "(dp1
S'com.typemytype.robofont.layerData'
p2
(dp3
S'b'
(dp4
S'name'
p5
S'asciitilde'
p6
sS'lib'
p7
(dp8
sS'unicodes'
p9
(tsS'width'
p10
I1399
sS'contours'
p11
(tsS'components'
p12
(tsS'anchors'
p13
(tsss."
LayerCount: 2
Fore
SplineSet
434 818 m 0
 630 822 860 996 1003 1003 c 0
 1067 1006 1100 933 1145 859 c 0
 1154 844 1166 828 1186 831 c 0
 1199 833 1198 833 1207 839 c 0
 1225 851 1223 859 1223 875 c 0
 1223 883 1221 892 1216 902 c 0
 1160 1018 1118 1086 988 1081 c 0
 813 1074 601 897 448 896 c 0
 355 895 304 936 262 1057 c 0
 259 1065 256 1084 232 1084 c 0
 225 1084 216 1082 206 1077 c 2
 196 1073 l 1
 173 1062 180 1053 180 1040 c 0
 180 1032 181 1025 185 1015 c 0
 214 937 270 815 434 818 c 0
EndSplineSet
EndChar

StartChar: asterisk
Encoding: 10 42 39
Width: 709
VWidth: 0
Flags: HW
PickledData: "(dp1
S'com.typemytype.robofont.layerData'
p2
(dp3
S'b'
(dp4
S'name'
p5
S'asterisk'
p6
sS'lib'
p7
(dp8
sS'unicodes'
p9
(tsS'width'
p10
I709
sS'contours'
p11
(tsS'components'
p12
(tsS'anchors'
p13
(tsss."
LayerCount: 2
Fore
SplineSet
247 422 m 0
 258 422 267 425 269 431 c 2
 353 667 l 1
 472 467 l 2
 481 453 493 447 506 447 c 0
 531 447 558 470 558 494 c 0
 558 502 555 510 549 517 c 0
 524 548 388 698 388 698 c 1
 564 743 l 2
 592 750 604 770 604 790 c 0
 604 818 582 848 555 848 c 0
 550 848 543 846 537 843 c 2
 379 743 l 1
 379 743 400 999 400 1001 c 0
 400 1035 379 1046 355 1046 c 0
 331 1046 309 1031 309 997 c 0
 309 911 326 829 336 743 c 1
 302 765 171 878 141 878 c 0
 115 878 99 846 99 813 c 0
 99 784 114 759 135 753 c 2
 321 698 l 1
 296 660 184 513 184 460 c 0
 184 436 221 422 247 422 c 0
EndSplineSet
EndChar

StartChar: at
Encoding: 32 64 40
Width: 1383
VWidth: 0
Flags: HW
PickledData: "(dp1
S'com.typemytype.robofont.layerData'
p2
(dp3
S'b'
(dp4
S'name'
p5
S'at'
p6
sS'lib'
p7
(dp8
sS'unicodes'
p9
(tsS'width'
p10
I1383
sS'contours'
p11
(tsS'components'
p12
(tsS'anchors'
p13
(tsss."
LayerCount: 2
Fore
SplineSet
689 299 m 0
 528 299 445 395 445 660 c 0
 445 912 524 1018 698 1018 c 0
 868 1018 926 833 926 652 c 0
 926 456 883 299 689 299 c 0
662 -105 m 0
 776 -105 941 -60 1003 -25 c 1
 986 40 l 1
 918 10 765 -30 673 -30 c 0
 239 -30 169 326 169 685 c 0
 169 1028 301 1402 702 1402 c 0
 1099 1402 1215 1091 1215 686 c 0
 1215 377 1175 300 1117 300 c 0
 1063 300 1021 354 1021 542 c 2
 1021 985 l 2
 1021 1015 1017 1033 1004 1033 c 2
 999 1033 l 2
 982 1033 978 1020 973 987 c 1
 961 846 l 2
 961 839 959 834 956 834 c 0
 954 834 950 838 948 845 c 0
 911 961 857 1074 692 1074 c 0
 467 1074 366 924 366 660 c 0
 366 381 461 242 687 242 c 0
 879 242 926 383 956 472 c 0
 959 480 961 494 967 494 c 0
 973 494 977 478 979 459 c 0
 991 352 1012 242 1115 242 c 0
 1208 242 1293 366 1293 686 c 0
 1292 1101 1190 1475 699 1475 c 0
 260 1475 90 1069 90 688 c 0
 90 268 198 -105 662 -105 c 0
EndSplineSet
EndChar

StartChar: b
Encoding: 66 98 41
Width: 684
VWidth: 0
Flags: HW
PickledData: "(dp1
S'com.typemytype.robofont.layerData'
p2
(dp3
S'b'
(dp4
S'name'
p5
S'b'
sS'lib'
p6
(dp7
sS'unicodes'
p8
(tsS'width'
p9
F684.428
sS'contours'
p10
(tsS'components'
p11
(tsS'anchors'
p12
(tsss."
LayerCount: 2
Fore
SplineSet
353 50 m 0
 254 50 173 247 173 504 c 0
 173 784 271 957 364 957 c 0
 455 957 531 849 531 504 c 0
 531 164 449 50 353 50 c 0
365 -12 m 0
 476 -12 608.428 107 608.428 504 c 0
 608.428 912 498 1019 376 1019 c 0
 299 1019 218 955 176 823 c 1
 176 823 175 819 174 819 c 2
 174 819 173 820 173 827 c 2
 173 1371 l 2
 173 1414 165 1438 150 1438 c 2
 118 1438 l 2
 104 1438 96 1414 96 1371 c 2
 96 53 l 2
 96 10 100 0 114 0 c 2
 118 0 l 2
 127.57248764 0 134.008316568 16.5734553379 138.777286842 40.8144369831 c 0
 147.842707429 86.8945510281 151 170 158 210 c 0
 159 219 160 221 160 221 c 2
 161 221 162 218 163 216 c 0
 207 52 288 -12 365 -12 c 0
EndSplineSet
EndChar

StartChar: backslash
Encoding: 60 92 42
Width: 505
VWidth: 0
Flags: HW
PickledData: "(dp1
S'com.typemytype.robofont.layerData'
p2
(dp3
S'b'
(dp4
S'name'
p5
S'backslash'
p6
sS'lib'
p7
(dp8
sS'unicodes'
p9
(tsS'width'
p10
F505.52273894699999
sS'contours'
p11
(tsS'components'
p12
(tsS'anchors'
p13
(tsss."
LayerCount: 2
Fore
SplineSet
357.617044797 -205 m 2
 413.617044797 -205 l 2
 418.617044797 -205 423.617044797 -187 420.617044797 -170 c 2
 187.617044797 1612 l 2
 184.617044797 1633 178.617044797 1647 171.617044797 1647 c 2
 114.617044797 1647 l 2
 108.617044797 1647 105.617044797 1629 107.617044797 1612 c 2
 340.617044797 -170 l 2
 343.617044797 -191 351.617044797 -205 357.617044797 -205 c 2
EndSplineSet
EndChar

StartChar: bar
Encoding: 92 124 43
Width: 278
VWidth: 0
Flags: HW
LayerCount: 2
Fore
SplineSet
131 -150 m 2
 148 -150 l 2
 163 -150 174 -136 174 -93 c 2
 174 1498 l 2
 174 1541 163 1555 148 1555 c 2
 131 1555 l 2
 115 1555 103 1541 103 1498 c 2
 103 -93 l 2
 103 -136 115 -150 131 -150 c 2
EndSplineSet
EndChar

StartChar: braceleft
Encoding: 91 123 44
Width: 499
VWidth: 0
Flags: HW
PickledData: "(dp1
S'com.typemytype.robofont.layerData'
p2
(dp3
S'b'
(dp4
S'name'
p5
S'braceleft'
p6
sS'lib'
p7
(dp8
sS'unicodes'
p9
(tsS'width'
p10
I499
sS'contours'
p11
((dp12
S'points'
p13
((dp14
S'segmentType'
p15
S'curve'
p16
sS'x'
F290
sS'smooth'
p17
I01
sS'y'
F-123
s(dp18
g15
S'line'
p19
sS'x'
F382
sg17
I01
sS'y'
F-123
s(dp20
S'y'
F-123
sS'x'
F397
sg17
I00
s(dp21
S'y'
F-118
sS'x'
F409
sg17
I00
s(dp22
g15
S'curve'
p23
sS'x'
F409
sg17
I01
sS'y'
F-86
s(dp24
g15
S'line'
p25
sS'x'
F409
sg17
I01
sS'y'
F-56
s(dp26
S'y'
F-4
sS'x'
F409
sg17
I00
s(dp27
S'y'
F-23
sS'x'
F349
sg17
I00
s(dp28
g15
S'curve'
p29
sS'x'
F331
sg17
I01
sS'y'
F-12
s(dp30
S'y'
F44
sS'x'
F244
sg17
I00
s(dp31
S'y'
F572
sS'x'
F370
sg17
I00
s(dp32
g15
S'curve'
p33
sS'x'
F208
sg17
I01
sS'y'
F695
s(dp34
S'y'
F700
sS'x'
F201
sg17
I00
s(dp35
S'y'
F720
sS'x'
F201
sg17
I00
s(dp36
g15
S'curve'
p37
sS'x'
F208
sg17
I01
sS'y'
F725
s(dp38
S'y'
F848
sS'x'
F370
sg17
I00
s(dp39
S'y'
F1376
sS'x'
F244
sg17
I00
s(dp40
g15
S'curve'
p41
sS'x'
F331
sg17
I01
sS'y'
F1432
s(dp42
S'y'
F1443
sS'x'
F349
sg17
I00
s(dp43
S'y'
F1424
sS'x'
F409
sg17
I00
s(dp44
g15
S'curve'
p45
sS'x'
F409
sg17
I01
sS'y'
F1476
s(dp46
g15
S'line'
p47
sS'x'
F409
sg17
I01
sS'y'
F1506
s(dp48
S'y'
F1538
sS'x'
F409
sg17
I00
s(dp49
S'y'
F1543
sS'x'
F397
sg17
I00
s(dp50
g15
S'curve'
p51
sS'x'
F382
sg17
I01
sS'y'
F1543
s(dp52
g15
S'line'
p53
sS'x'
F290
sg17
I01
sS'y'
F1543
s(dp54
S'y'
F1543
sS'x'
F128
sg17
I00
s(dp55
S'y'
F852
sS'x'
F247
sg17
I00
s(dp56
g15
S'curve'
p57
sS'x'
F148
sg17
I01
sS'y'
F807
s(dp58
S'y'
F797
sS'x'
F126
sg17
I00
s(dp59
S'y'
F792
sS'x'
F82
sg17
I00
s(dp60
g15
S'curve'
p61
sS'x'
F82
sg17
I01
sS'y'
F736
s(dp62
g15
S'line'
p63
sS'x'
F82
sg17
I01
sS'y'
F684
s(dp64
S'y'
F628
sS'x'
F82
sg17
I00
s(dp65
S'y'
F623
sS'x'
F126
sg17
I00
s(dp66
g15
S'curve'
p67
sS'x'
F148
sg17
I01
sS'y'
F613
s(dp68
S'y'
F568
sS'x'
F247
sg17
I00
s(dp69
S'y'
F-123
sS'x'
F128
sg17
I00
stp70
stp71
sS'components'
p72
(tsS'anchors'
p73
(tsss."
LayerCount: 2
Fore
SplineSet
105 736 m 2
 105 684 126 690 171 690 c 0
 213 690 217 674 217 522 c 2
 217 293 l 2
 217 -54 239 -65 333 -65 c 2
 376 -65 l 2
 391 -65 403 -59 403 -35 c 2
 403 -16 l 2
 403 6 390 9 345 9 c 0
 292 9 292 11 292 327 c 2
 292 569 l 2
 292 703 280 733 220 741 c 1
 280 748 292 775 292 909 c 2
 292 1151 l 2
 292 1467 292 1469 345 1469 c 0
 390 1469 403 1472 403 1494 c 2
 403 1513 l 2
 403 1537 391 1543 376 1543 c 2
 333 1543 l 2
 239 1543 217 1533 217 1186 c 2
 217 950 l 2
 217 798 213 782 171 782 c 0
 127 782 105 786 105 741 c 2
 105 736 l 2
EndSplineSet
EndChar

StartChar: braceright
Encoding: 93 125 45
Width: 499
VWidth: 0
Flags: HW
PickledData: "(dp1
S'com.typemytype.robofont.layerData'
p2
(dp3
S'b'
(dp4
S'name'
p5
S'braceright'
p6
sS'lib'
p7
(dp8
sS'unicodes'
p9
(tsS'width'
p10
I499
sS'contours'
p11
(tsS'components'
p12
(tsS'anchors'
p13
(tsss."
LayerCount: 2
Fore
SplineSet
403 742 m 2
 403 794 382 788 337 788 c 0
 295 788 291 804 291 956 c 2
 291 1185 l 2
 291 1532 269 1543 175 1543 c 2
 132 1543 l 2
 117 1543 105 1537 105 1513 c 2
 105 1494 l 2
 105 1472 118 1469 163 1469 c 0
 216 1469 216 1467 216 1151 c 2
 216 909 l 2
 216 775 228 745 288 737 c 1
 228 730 216 703 216 569 c 2
 216 327 l 2
 216 11 216 9 163 9 c 0
 118 9 105 6 105 -16 c 2
 105 -35 l 2
 105 -59 117 -65 132 -65 c 2
 175 -65 l 2
 269 -65 291 -55 291 292 c 2
 291 528 l 2
 291 680 295 696 337 696 c 0
 381 696 403 692 403 737 c 2
 403 742 l 2
EndSplineSet
EndChar

StartChar: bracketleft
Encoding: 59 91 46
Width: 433
VWidth: 0
Flags: HW
PickledData: "(dp1
S'com.typemytype.robofont.layerData'
p2
(dp3
S'b'
(dp4
S'name'
p5
S'bracketleft'
p6
sS'lib'
p7
(dp8
sS'unicodes'
p9
(tsS'width'
p10
I433
sS'contours'
p11
(tsS'components'
p12
(tsS'anchors'
p13
(tsss."
LayerCount: 2
Fore
SplineSet
130 -57 m 2
 325 -57 l 2
 339 -57 347 -51 347 -8 c 2
 347 -3 l 2
 347 40 339 54 325 54 c 2
 190 54 l 2
 183 54 181 61 181 81 c 2
 181 1367 l 2
 181 1387 183 1394 190 1394 c 2
 325 1394 l 2
 339 1394 347 1408 347 1451 c 2
 347 1460 l 2
 347 1503 339 1517 325 1517 c 2
 130 1517 l 2
 114 1517 103 1483 103 1440 c 2
 103 12 l 2
 103 -31 114 -57 130 -57 c 2
EndSplineSet
EndChar

StartChar: bracketright
Encoding: 61 93 47
Width: 434
VWidth: 0
Flags: HW
LayerCount: 2
Fore
SplineSet
111 -65 m 2
 306 -65 l 2
 320 -65 331 -31 331 12 c 2
 331 1440 l 2
 331 1483 320 1517 306 1517 c 2
 111 1517 l 2
 96 1517 88 1503 88 1460 c 2
 88 1411 l 2
 88 1368 96 1354 111 1354 c 2
 244 1354 l 2
 251 1354 253 1347 253 1327 c 2
 253 135 l 2
 253 115 251 108 244 108 c 2
 111 108 l 2
 96 108 88 94 88 51 c 2
 88 -8 l 2
 88 -51 96 -65 111 -65 c 2
EndSplineSet
EndChar

StartChar: brokenbar
Encoding: 101 166 48
Width: 446
VWidth: 0
Flags: HW
PickledData: "(dp1
S'com.typemytype.robofont.layerData'
p2
(dp3
S'b'
(dp4
S'name'
p5
S'brokenbar'
p6
sS'lib'
p7
(dp8
sS'unicodes'
p9
(tsS'width'
p10
I446
sS'contours'
p11
((dp12
S'points'
p13
((dp14
S'segmentType'
p15
S'curve'
p16
sS'x'
F217
sS'smooth'
p17
I01
sS'y'
F819
s(dp18
g15
S'line'
p19
sS'x'
F232
sg17
I01
sS'y'
F819
s(dp20
S'y'
F819
sS'x'
F275
sg17
I00
s(dp21
S'y'
F853
sS'x'
F289
sg17
I00
s(dp22
g15
S'curve'
p23
sS'x'
F289
sg17
I01
sS'y'
F896
s(dp24
g15
S'line'
p25
sS'x'
F289
sg17
I01
sS'y'
F1478
s(dp26
S'y'
F1521
sS'x'
F289
sg17
I00
s(dp27
S'y'
F1555
sS'x'
F275
sg17
I00
s(dp28
g15
S'curve'
p29
sS'x'
F232
sg17
I01
sS'y'
F1555
s(dp30
g15
S'line'
p31
sS'x'
F217
sg17
I01
sS'y'
F1555
s(dp32
S'y'
F1555
sS'x'
F174
sg17
I00
s(dp33
S'y'
F1521
sS'x'
F160
sg17
I00
s(dp34
g15
S'curve'
p35
sS'x'
F160
sg17
I01
sS'y'
F1478
s(dp36
g15
S'line'
p37
sS'x'
F160
sg17
I01
sS'y'
F896
s(dp38
S'y'
F853
sS'x'
F160
sg17
I00
s(dp39
S'y'
F819
sS'x'
F174
sg17
I00
stp40
s(dp41
g13
((dp42
g15
S'curve'
p43
sS'x'
F217
sg17
I01
sS'y'
F-150
s(dp44
g15
S'line'
p45
sS'x'
F232
sg17
I01
sS'y'
F-150
s(dp46
S'y'
F-150
sS'x'
F275
sg17
I00
s(dp47
S'y'
F-116
sS'x'
F289
sg17
I00
s(dp48
g15
S'curve'
p49
sS'x'
F289
sg17
I01
sS'y'
F-73
s(dp50
g15
S'line'
p51
sS'x'
F289
sg17
I01
sS'y'
F509
s(dp52
S'y'
F552
sS'x'
F289
sg17
I00
s(dp53
S'y'
F586
sS'x'
F275
sg17
I00
s(dp54
g15
S'curve'
p55
sS'x'
F232
sg17
I01
sS'y'
F586
s(dp56
g15
S'line'
p57
sS'x'
F217
sg17
I01
sS'y'
F586
s(dp58
S'y'
F586
sS'x'
F174
sg17
I00
s(dp59
S'y'
F552
sS'x'
F160
sg17
I00
s(dp60
g15
S'curve'
p61
sS'x'
F160
sg17
I01
sS'y'
F509
s(dp62
g15
S'line'
p63
sS'x'
F160
sg17
I01
sS'y'
F-73
s(dp64
S'y'
F-116
sS'x'
F160
sg17
I00
s(dp65
S'y'
F-150
sS'x'
F174
sg17
I00
stp66
stp67
sS'components'
p68
(tsS'anchors'
p69
(tsss."
LayerCount: 2
Fore
SplineSet
206 -75 m 2
 239 -75 l 2
 254 -75 262 -71 262 -28 c 2
 262 570 l 2
 262 613 254 617 239 617 c 2
 206 617 l 2
 192 617 184 613 184 570 c 2
 184 -28 l 2
 184 -71 192 -75 206 -75 c 2
206 822 m 2
 239 822 l 2
 254 822 262 826 262 869 c 2
 262 1471 l 2
 262 1514 254 1518 239 1518 c 2
 206 1518 l 2
 192 1518 184 1514 184 1471 c 2
 184 869 l 2
 184 826 192 822 206 822 c 2
EndSplineSet
EndChar

StartChar: c
Encoding: 67 99 49
Width: 504
VWidth: 0
Flags: HW
PickledData: "(dp1
S'com.typemytype.robofont.layerData'
p2
(dp3
S'b'
(dp4
S'name'
p5
S'c'
sS'lib'
p6
(dp7
sS'unicodes'
p8
(tsS'width'
p9
I504
sS'contours'
p10
(tsS'components'
p11
(tsS'anchors'
p12
(tsss."
LayerCount: 2
Fore
SplineSet
335 -12 m 0
 371 -11 413 -4 444 10 c 1
 453 21 l 1
 453 60 l 1
 444 70 l 1
 410 58 377 50 348 50 c 0
 253 50 158 103 158 506 c 0
 158 935 263 957 345 957 c 0
 377 957 409 949 444 939 c 1
 451 949 l 1
 451 989 l 1
 444 1000 l 1
 408 1014 361 1019 335 1019 c 0
 223 1019 80 983 80 506 c 0
 80 35 224 -14 335 -12 c 0
EndSplineSet
EndChar

StartChar: caron
Encoding: 349 711 50
Width: 291
VWidth: 0
Flags: HW
LayerCount: 2
Fore
SplineSet
146 1353 m 0
 148.875 1353 151.875 1357 154.875 1363 c 2
 211.875 1468 l 2
 214.875 1474 221.875 1476 229.875 1476 c 0
 245.875 1476 265.875 1467 265.875 1453 c 0
 265.875 1451 265.875 1449 264.875 1447 c 2
 207.875 1307 l 2
 187.875 1258 174.875 1240 153.875 1240 c 0
 148.583007812 1240 143.291992188 1240 138 1240 c 0
 117 1240 104 1258 84 1307 c 2
 27 1447 l 2
 26 1449 26 1451 26 1453 c 0
 26 1467 46 1476 62 1476 c 0
 70 1476 77 1474 80 1468 c 2
 137 1363 l 2
 140 1357 143 1353 146 1353 c 0
EndSplineSet
EndChar

StartChar: cedilla
Encoding: 116 184 52
Width: 245
VWidth: 0
Flags: HW
LayerCount: 2
Fore
SplineSet
137 -642 m 0
 186 -642 212 -548 212 -370 c 0
 212 -259 186 -156 149 -156 c 2
 124 -156 l 2
 120 -156 119 -163 119 -173 c 2
 119 -244 l 2
 119 -255 124 -254 124 -254 c 1
 137 -254 l 2
 155 -254 165 -331 165 -407 c 0
 165 -517 156 -557 141 -557 c 0
 123 -557 114 -514 114 -461 c 0
 114 -441.809 124.139 -373 107 -373 c 2
 85 -373 l 2
 68.3406 -373 68 -442.941 68 -464 c 0
 68 -572 98 -642 137 -642 c 0
EndSplineSet
EndChar

StartChar: circumflex
Encoding: 348 710 53
Width: 291
VWidth: 0
Flags: HW
PickledData: "(dp1
S'com.typemytype.robofont.layerData'
p2
(dp3
S'b'
(dp4
S'name'
p5
S'circumflex'
p6
sS'lib'
p7
(dp8
sS'unicodes'
p9
(tsS'width'
p10
I291
sS'contours'
p11
(tsS'components'
p12
(tsS'anchors'
p13
(tsss."
LayerCount: 2
Fore
SplineSet
145.875 1363 m 0
 143 1363 140 1359 137 1353 c 2
 80 1248 l 2
 77 1242 70 1240 62 1240 c 0
 46 1240 26 1249 26 1263 c 0
 26 1265 26 1267 27 1269 c 2
 84 1409 l 2
 104 1458 117 1476 138 1476 c 0
 143.291666667 1476 148.583333333 1476 153.875 1476 c 0
 174.875 1476 187.875 1458 207.875 1409 c 2
 264.875 1269 l 2
 265.875 1267 265.875 1265 265.875 1263 c 0
 265.875 1249 245.875 1240 229.875 1240 c 0
 221.875 1240 214.875 1242 211.875 1248 c 2
 154.875 1353 l 2
 151.875 1359 148.875 1363 145.875 1363 c 0
EndSplineSet
EndChar

StartChar: colon
Encoding: 26 58 54
Width: 291
VWidth: 0
Flags: HW
LayerCount: 2
Fore
SplineSet
122 754 m 2
 169 754 l 2
 184 754 195 788 195 831 c 2
 195 975 l 2
 195 1018 184 1052 169 1052 c 2
 122 1052 l 2
 108 1052 96 1018 96 975 c 2
 96 831 l 2
 96 788 108 754 122 754 c 2
122 0 m 2
 169 0 l 2
 184 0 195 34 195 77 c 2
 195 221 l 2
 195 264 184 298 169 298 c 2
 122 298 l 2
 108 298 96 264 96 221 c 2
 96 77 l 2
 96 34 108 0 122 0 c 2
EndSplineSet
EndChar

StartChar: comma
Encoding: 12 44 55
Width: 289
VWidth: 0
Flags: HW
PickledData: "(dp1
S'com.typemytype.robofont.layerData'
p2
(dp3
S'b'
(dp4
S'name'
p5
S'comma'
p6
sS'lib'
p7
(dp8
sS'unicodes'
p9
(tsS'width'
p10
I289
sS'contours'
p11
(tsS'components'
p12
(tsS'anchors'
p13
(tsss."
LayerCount: 2
Fore
SplineSet
90 -268 m 0
 138 -245 183 -142 183 95 c 2
 183 116 l 2
 183 159 171 193 156 193 c 2
 99 193 l 2
 84 193 61 172 61 129 c 2
 61 50 l 2
 61 12 69 0 82 0 c 2
 117 0 l 2
 123 0 123 -11 123 -27 c 0
 123 -51 112 -128 89 -171 c 0
 74 -198 68 -197 68 -223 c 2
 68 -233 l 2
 68 -269 78 -274 90 -268 c 0
EndSplineSet
EndChar

StartChar: copyright
Encoding: 104 169 56
Width: 1306
VWidth: 0
Flags: HW
PickledData: "(dp1
S'com.typemytype.robofont.layerData'
p2
(dp3
s."
LayerCount: 2
Fore
SplineSet
1216 718 m 0
 1216 1105 1054 1451 653 1451 c 0
 254 1451 90 1105 90 718 c 0
 90 331 254 -13 653 -13 c 0
 1054 -13 1216 331 1216 718 c 0
169 714 m 0
 169 1049 293 1388 655 1388 c 0
 1017 1388 1141 1049 1141 714 c 0
 1141 390 1017 51 655 51 c 0
 293 51 169 390 169 714 c 0
846 390 m 0
 854 395 858 404 858 414 c 0
 858 434 845 454 828 454 c 0
 826 454 824 453 821 452 c 0
 769 425 735 406 677 406 c 0
 542 406 443 511 443 726 c 0
 443 933 544 1044 682 1044 c 0
 740 1044 792 1016 834 985 c 0
 836 984 838 983 839 983 c 0
 852 983 866 1008 866 1026 c 0
 866 1032 865 1037 862 1040 c 0
 820 1080 759 1111 671 1111 c 0
 527 1111 369 1002 369 727 c 0
 369 465 502 338 676 338 c 0
 756 338 783 354 846 390 c 0
EndSplineSet
EndChar

StartChar: currency
Encoding: 99 164 57
Width: 946
VWidth: 0
Flags: HW
PickledData: "(dp1
S'com.typemytype.robofont.layerData'
p2
(dp3
s."
LayerCount: 2
Fore
SplineSet
473 743 m 0
 243 743 157 913 157 1059 c 0
 157 1214 243 1379 473 1379 c 0
 702 1379 787 1214 787 1059 c 0
 787 913 702 743 473 743 c 0
473 679 m 0
 575 679 636 704 702 747 c 1
 726 723 l 2
 741 707 755 693 769 693 c 0
 776 693 782 697 788 703 c 2
 813 728 l 2
 821 735 824 742 824 749 c 0
 824 763 811 776 795 792 c 2
 776 811 l 1
 835 879 866 967 866 1063 c 0
 866 1161 834 1251 774 1320 c 1
 795 1340 l 2
 811 1356 824 1370 824 1384 c 0
 824 1390 821 1396 815 1403 c 2
 790 1427 l 2
 782 1435 776 1438 769 1438 c 0
 754 1438 741 1425 725 1409 c 2
 700 1384 l 1
 635 1426 574 1451 473 1451 c 0
 372 1451 312 1426 247 1384 c 1
 221 1410 l 2
 205 1425 192 1438 178 1438 c 0
 171 1438 163 1435 156 1427 c 2
 131 1403 l 2
 124 1397 121 1390 121 1384 c 0
 121 1370 135 1356 151 1340 c 2
 172 1320 l 1
 111 1251 80 1161 80 1063 c 0
 80 967 111 878 170 811 c 1
 151 792 l 2
 136 776 123 763 123 749 c 0
 123 742 126 735 134 727 c 2
 158 703 l 2
 164 696 171 693 177 693 c 0
 191 693 205 707 221 723 c 2
 244 747 l 1
 309 704 370 679 473 679 c 0
EndSplineSet
EndChar

StartChar: d
Encoding: 68 100 58
Width: 687
VWidth: 0
Flags: HW
PickledData: "(dp1
S'com.typemytype.robofont.layerData'
p2
(dp3
S'b'
(dp4
S'name'
p5
S'd'
sS'lib'
p6
(dp7
sS'unicodes'
p8
(tsS'width'
p9
I687
sS'contours'
p10
(tsS'components'
p11
(tsS'anchors'
p12
(tsss."
LayerCount: 2
Fore
SplineSet
335 50 m 0
 228 46 156 142 156 505 c 0
 156 892 239 960 335 957 c 0
 427 954 513.305 786 513.305 504 c 0
 513.305 246 434 54 335 50 c 0
321 -12 m 0
 419 -12 480 50 523 211 c 0
 524 217 526 222 527 228 c 1
 528 224 529 217 530 209 c 0
 534 174 539 100 547 53 c 0
 553 22 560 0 568 0 c 2
 573 0 l 2
 588 0 591 24 591 67 c 2
 591 1371 l 2
 591 1414 582 1438 568 1438 c 2
 537 1438 l 2
 521 1438 513 1414 513 1371 c 2
 513 826 l 1
 513 813 l 1
 512 818 510 823 509 826 c 0
 467 956 399 1019 323 1019 c 0
 189 1019 78 956 78 505 c 0
 78 43 209 -12 321 -12 c 0
EndSplineSet
EndChar

StartChar: dieresis
Encoding: 103 168 59
Width: 254
VWidth: 0
Flags: HW
LayerCount: 2
Fore
SplineSet
317.472 0 m 2
 360.472 0 l 2
 375.472 0 386.472 34 386.472 77 c 2
 386.472 173 l 2
 386.472 216 375.472 250 360.472 250 c 2
 317.472 250 l 2
 303.472 250 292.472 216 292.472 173 c 2
 292.472 77 l 2
 292.472 34 303.472 0 317.472 0 c 2
100 0 m 2
 143 0 l 2
 158 0 170 34 170 77 c 2
 170 173 l 2
 170 216 158 250 143 250 c 2
 100 250 l 2
 85 250 73 216 73 173 c 2
 73 77 l 2
 73 34 85 0 100 0 c 2
EndSplineSet
EndChar

StartChar: e
Encoding: 69 101 61
Width: 647
VWidth: 0
Flags: HW
PickledData: "(dp1
S'com.typemytype.robofont.layerData'
p2
(dp3
S'b'
(dp4
S'name'
p5
S'e'
sS'lib'
p6
(dp7
sS'unicodes'
p8
(tsS'width'
p9
I647
sS'contours'
p10
(tsS'components'
p11
(tsS'anchors'
p12
(tsss."
LayerCount: 2
Fore
SplineSet
164.494 539 m 2
 162.247 539 162.247 598 162.247 602 c 0
 184.719 906 260 957 341 957 c 0
 463 957 504 802 513 541 c 1
 513 539 l 1
 164.494 539 l 2
350 -12 m 0
 500 -12 568 120 568 256 c 2
 568 289 l 2
 568 299 563 302 558 302 c 2
 519 302 l 2
 517 302 515 291 514 284 c 0
 507 200 490 50 356 50 c 0
 197 50 161.124 317 160 477 c 0
 160 485 162.247 487 165.618 487 c 2
 533 487 l 2
 572 487 578 530 578 565 c 2
 578 607 l 1
 565 861 505 1019 342 1019 c 0
 216 1019 80 932 80 504 c 0
 80 106 202 -12 350 -12 c 0
EndSplineSet
EndChar

StartChar: eight
Encoding: 24 56 63
Width: 794
VWidth: 0
Flags: HW
PickledData: "(dp1
S'com.typemytype.robofont.layerData'
p2
(dp3
S'b'
(dp4
S'name'
p5
S'eight'
p6
sS'lib'
p7
(dp8
sS'unicodes'
p9
(tsS'width'
p10
I794
sS'contours'
p11
((dp12
S'points'
p13
((dp14
S'segmentType'
p15
S'curve'
p16
sS'x'
F403
sS'smooth'
p17
I01
sS'y'
F-13
s(dp18
S'y'
F-13
sS'x'
F655
sg17
I00
s(dp19
S'y'
F125
sS'x'
F737
sg17
I00
s(dp20
g15
S'curve'
p21
sS'x'
F737
sg17
I01
sS'y'
F724
s(dp22
S'y'
F1276
sS'x'
F737
sg17
I00
s(dp23
S'y'
F1451
sS'x'
F655
sg17
I00
s(dp24
g15
S'curve'
p25
sS'x'
F403
sg17
I01
sS'y'
F1451
s(dp26
S'y'
F1451
sS'x'
F155
sg17
I00
s(dp27
S'y'
F1266
sS'x'
F71
sg17
I00
s(dp28
g15
S'curve'
p29
sS'x'
F71
sg17
I01
sS'y'
F724
s(dp30
S'y'
F135
sS'x'
F71
sg17
I00
s(dp31
S'y'
F-13
sS'x'
F155
sg17
I00
stp32
s(dp33
g13
((dp34
g15
S'curve'
p35
sS'x'
F403
sg17
I01
sS'y'
F51
s(dp36
S'y'
F51
sS'x'
F219
sg17
I00
s(dp37
S'y'
F168
sS'x'
F149
sg17
I00
s(dp38
g15
S'curve'
p39
sS'x'
F149
sg17
I01
sS'y'
F724
s(dp40
S'y'
F1212
sS'x'
F149
sg17
I00
s(dp41
S'y'
F1388
sS'x'
F214
sg17
I00
s(dp42
g15
S'curve'
p43
sS'x'
F403
sg17
I01
sS'y'
F1388
s(dp44
S'y'
F1388
sS'x'
F594
sg17
I00
s(dp45
S'y'
F1233
sS'x'
F659
sg17
I00
s(dp46
g15
S'curve'
p47
sS'x'
F659
sg17
I01
sS'y'
F724
s(dp48
S'y'
F154
sS'x'
F659
sg17
I00
s(dp49
S'y'
F51
sS'x'
F590
sg17
I00
stp50
stp51
sS'components'
p52
(tsS'anchors'
p53
((dp54
S'y'
F1452
sS'x'
F403
sg5
S'top'
p55
stp56
sss."
LayerCount: 2
Fore
SplineSet
510 730 m 1
 255 823 201 842 201.461 1029 c 0
 202 1271 259 1388 399 1388 c 0
 526 1388 592.474 1295 592.474 1025 c 0
 592.474 887 532 781 510 730 c 1
399 51 m 0
 251 51 170 135 170 403 c 0
 170 498 221 672 272 746 c 1
 583 655 623 584 622.811 403 c 0
 623 135 548 51 399 51 c 0
397 -12 m 0
 574 -12 702 77 701.811 387 c 0
 702 545 646 648 561 696 c 1
 601 754 668 879 667.811 1029 c 0
 668 1322 574 1450 397 1450 c 0
 222 1450 120 1323 120 1059 c 0
 120 868 169 812 220 774 c 1
 177 717 93 561 93 403 c 0
 93 97 222 -12 397 -12 c 0
EndSplineSet
EndChar

StartChar: equal
Encoding: 29 61 64
Width: 429
VWidth: 0
Flags: HW
PickledData: "(dp1
S'com.typemytype.robofont.layerData'
p2
(dp3
S'b'
(dp4
S'name'
p5
S'equal'
p6
sS'lib'
p7
(dp8
sS'unicodes'
p9
(tsS'width'
p10
I429
sS'contours'
p11
(tsS'components'
p12
(tsS'anchors'
p13
(tsss."
LayerCount: 2
Fore
SplineSet
67 631 m 2
 361 631 l 2
 376 631 381 631 381 674 c 2
 381 678 l 2
 381 721 376 721 361 721 c 2
 67 721 l 2
 52 721 48 721 48 678 c 2
 48 674 l 2
 48 631 52 631 67 631 c 2
67 366 m 2
 361 366 l 2
 376 366 381 366 381 409 c 2
 381 413 l 2
 381 456 376 456 361 456 c 2
 67 456 l 2
 52 456 48 456 48 413 c 2
 48 409 l 2
 48 366 52 366 67 366 c 2
EndSplineSet
EndChar

StartChar: exclam
Encoding: 1 33 65
Width: 286
VWidth: 0
Flags: HW
PickledData: "(dp1
S'com.typemytype.robofont.layerData'
p2
(dp3
S'b'
(dp4
S'name'
p5
S'exclam'
p6
sS'lib'
p7
(dp8
sS'unicodes'
p9
(tsS'width'
p10
I286
sS'contours'
p11
(tsS'components'
p12
(tsS'anchors'
p13
(tsss."
LayerCount: 2
Fore
SplineSet
143 352 m 2
 144 352 l 2
 159 352 158 376 160 419 c 2
 196 1372 l 2
 198 1415 182 1438 168 1438 c 2
 117 1438 l 2
 101 1438 88 1414 90 1371 c 2
 127 419 l 2
 129 376 128 352 143 352 c 2
109 0 m 2
 181 0 l 2
 196 0 207 14 207 57 c 2
 207 147 l 2
 207 190 196 204 181 204 c 2
 109 204 l 2
 95 204 83 190 83 147 c 2
 83 57 l 2
 83 14 95 0 109 0 c 2
EndSplineSet
EndChar

StartChar: f
Encoding: 70 102 67
Width: 412
VWidth: 0
Flags: HW
PickledData: "(dp1
S'com.typemytype.robofont.layerData'
p2
(dp3
S'b'
(dp4
S'name'
p5
S'f'
sS'lib'
p6
(dp7
sS'unicodes'
p8
(tsS'width'
p9
I412
sS'contours'
p10
(tsS'components'
p11
(tsS'anchors'
p12
(tsss."
LayerCount: 2
Fore
SplineSet
156 0 m 2
 182 0 l 2
 196 0 207 34 207 77 c 2
 207 915 l 2
 207 935 209 936 216 936 c 2
 352 936 l 2
 366 936 373 939 373 958 c 2
 373 987 l 2
 373 1005 366 1006 352 1006 c 2
 211 1006 l 2
 209 1006 207 1009 207 1012 c 2
 207 1090 l 2
 207 1313 219 1360 319 1360 c 2
 367 1360 l 2
 380 1360 380 1360 380 1392 c 2
 380 1406 l 2
 380 1434 370 1430 362 1430 c 2
 317 1430 l 2
 159 1430 130 1356 130 1034 c 0
 130 1012 130 1006 122 1006 c 2
 72 1006 l 2
 57 1006 48 1004 48 985 c 2
 48 958 l 2
 48 938 57 936 72 936 c 2
 122 936 l 2
 130 936 130 935 130 915 c 2
 130 77 l 2
 130 34 142 0 156 0 c 2
EndSplineSet
EndChar

StartChar: five
Encoding: 21 53 68
Width: 898
VWidth: 0
Flags: HW
PickledData: "(dp1
S'com.typemytype.robofont.layerData'
p2
(dp3
S'b'
(dp4
S'name'
p5
S'five'
p6
sS'lib'
p7
(dp8
sS'unicodes'
p9
(tsS'width'
p10
I898
sS'contours'
p11
(tsS'components'
p12
(tsS'anchors'
p13
(tsss."
LayerCount: 2
Fore
SplineSet
429 -13 m 1
 430 -13 l 2
 662 -13 819 82 819 466 c 0
 819 742 753 928 502 928 c 0
 334 928 246 820 216 782 c 1
 216 1322 l 2
 216 1351 221 1357 237 1357 c 2
 752 1357 l 2
 762 1357 765 1370 766 1400 c 1
 766 1400 766 1411 766 1415 c 0
 766 1437 750 1438 735 1438 c 2
 158 1438 l 2
 132 1438 130 1426 131 1392 c 2
 148 774 l 2
 149 734 147 694 173 694 c 2
 194 694 l 2
 251 694 328 861 505 861 c 0
 714 861 744 662 744 463 c 0
 744 241 669 52 434 52 c 0
 306 52 175 99 160 103 c 0
 156 104 153 105 150 105 c 0
 140 105 134 105 134 75 c 2
 134 69 l 2
 134 40 141 35 154 29 c 0
 197 9 337 -12 429 -13 c 1
EndSplineSet
EndChar

StartChar: four
Encoding: 20 52 69
Width: 847
VWidth: 0
Flags: HW
PickledData: "(dp1
S'com.typemytype.robofont.layerData'
p2
(dp3
S'b'
(dp4
S'name'
p5
S'four'
p6
sS'lib'
p7
(dp8
sS'unicodes'
p9
(tsS'width'
p10
F847.75949062100005
sS'contours'
p11
(tsS'components'
p12
(tsS'anchors'
p13
(tsss."
LayerCount: 2
Fore
SplineSet
579.759490621 0 m 2
 589.759490621 0 l 2
 612.759490621 0 623.759490621 4 623.759490621 47 c 2
 623.759490621 284 l 1
 798.759490621 284 l 2
 841.759490621 284 853.759490621 284 853.759490621 319 c 2
 853.759490621 324 l 2
 853.759490621 359 841.759490621 359 798.759490621 359 c 2
 623.759490621 359 l 1
 623.759490621 1389 l 2
 623.759490621 1432 612.759490621 1438 589.759490621 1438 c 2
 579.759490621 1438 l 2
 556.759490621 1438 545.759490621 1432 545.759490621 1389 c 2
 545.759490621 359 l 1
 222.759490621 359 l 2
 201.759490621 359 200.759490621 362 202.759490621 380 c 2
 325.759490621 1371 l 2
 327.759490621 1387 335.759490621 1438 302.759490621 1438 c 2
 283.759490621 1438 l 2
 257.759490621 1438 252.759490621 1414 246.759490621 1371 c 2
 114.759490621 351 l 2
 108.759490621 305 138.978240621 284 181.759490621 284 c 2
 545.759490621 284 l 1
 545.759490621 47 l 2
 545.759490621 4 556.759490621 0 579.759490621 0 c 2
EndSplineSet
EndChar

StartChar: fraction
Encoding: 395 8260 70
Width: 501
VWidth: 0
Flags: HW
LayerCount: 2
Fore
SplineSet
76 -205 m 2
 121 -205 l 2
 127 -205 135 -192 138 -172 c 2
 438 1614 l 2
 441 1629 437 1647 431 1647 c 2
 388 1647 l 2
 380 1647 372 1634 369 1614 c 2
 69 -172 l 2
 66 -187 71 -205 76 -205 c 2
EndSplineSet
EndChar

StartChar: g
Encoding: 71 103 71
Width: 597
VWidth: 0
Flags: HW
PickledData: "(dp1
S'com.typemytype.robofont.layerData'
p2
(dp3
S'b'
(dp4
S'name'
p5
S'g'
sS'lib'
p6
(dp7
sS'unicodes'
p8
(tsS'width'
p9
I597
sS'contours'
p10
(tsS'components'
p11
(tsS'anchors'
p12
(tsss."
LayerCount: 2
Fore
SplineSet
314 410 m 0
 180 410 148 526 148 682 c 0
 148 797 155 957 288 957 c 0
 426 957 452 800 452 671 c 0
 452 534 454 410 314 410 c 0
294 -225 m 0
 179 -225 152 -171 152 -100 c 0
 152 6 207 108 242 108 c 2
 358 108 l 2
 442 108 503 75 503 -28 c 0
 503 -161 452 -225 294 -225 c 0
307 -285 m 0
 490 -285 566 -206 566 -26 c 0
 566 80 521 167 364 167 c 2
 241 167 l 2
 171 167 141 210 141 249 c 0
 141 313 171 347 203 378 c 1
 232 361 271 351 316 351 c 0
 491 351 523 485 523 678 c 0
 523 796 487 914 422 966 c 0
 416 970 413 977 413 986 c 0
 413 989 413 992 414 996 c 2
 481 1270 l 2
 487 1295 479 1309 468 1309 c 2
 434 1309 l 2
 417 1309 408 1306 404 1267 c 2
 374 1027 l 2
 372 1010 368 1006 361 1008 c 0
 344 1013 323 1019 301 1019 c 0
 123 1019 75 862 75 678 c 0
 75 587 92 505 144 432 c 0
 147 429 148 424 148 419 c 0
 148 414 147 409 143 404 c 0
 110 360 84 334 84 239 c 0
 84 202 100 159 148 135 c 0
 154 132 158 130 158 125 c 0
 158 121 155 116 153 112 c 0
 113 39 81 -60 81 -116 c 0
 81 -212 141 -285 307 -285 c 0
EndSplineSet
EndChar

StartChar: grave
Encoding: 64 96 72
Width: 595
VWidth: 0
Flags: HW
LayerCount: 2
Fore
SplineSet
453 1166 m 2
 466 1166 l 2
 476 1166 480 1171 480 1198 c 0
 480 1207 480 1219 479 1233 c 2
 459 1543 l 1
 455 1586 449 1598 433 1598 c 2
 377 1598 l 2
 370 1598 367 1586 367 1570 c 0
 367 1559 369 1545 371 1533 c 2
 433 1205 l 2
 436 1188 439 1166 453 1166 c 2
EndSplineSet
EndChar

StartChar: greater
Encoding: 30 62 73
Width: 494
VWidth: 0
Flags: HW
PickledData: "(dp1
S'com.typemytype.robofont.layerData'
p2
(dp3
S'b'
(dp4
S'name'
p5
S'greater'
p6
sS'lib'
p7
(dp8
sS'unicodes'
p9
(tsS'width'
p10
I494
sS'contours'
p11
(tsS'components'
p12
(tsS'anchors'
p13
(tsss."
LayerCount: 2
Fore
SplineSet
84 1151 m 0
 78 1151 75 1138 75 1113 c 2
 75 1085 l 2
 75 1042 83 1034 99 1011 c 2
 337 660 l 2
 340 657 341 652 341 648 c 0
 341 643 340 638 338 635 c 2
 98 242 l 2
 83 218 75 201 75 158 c 2
 75 143 l 2
 75 115 78 101 85 101 c 0
 89 101 94 104 99 113 c 2
 374 560 l 2
 397 597 400 602 400 641 c 2
 400 646 l 2
 400 686 399 697 375 732 c 2
 98 1133 l 2
 92 1142 87 1151 84 1151 c 0
EndSplineSet
EndChar

StartChar: guillemotleft
Encoding: 106 171 74
Width: 494
VWidth: 0
Flags: HW
PickledData: "(dp1
S'com.typemytype.robofont.layerData'
p2
(dp3
S'b'
(dp4
S'name'
p5
S'guillemotleft'
p6
sS'lib'
p7
(dp8
sS'unicodes'
p9
(tsS'width'
p10
I494
sS'contours'
p11
(tsS'components'
p12
(tsS'anchors'
p13
(tsss."
LayerCount: 2
Fore
SplineSet
391 101 m 0
 397 101 400 114 400 139 c 2
 400 167 l 2
 400 210 392 218 376 241 c 2
 138 592 l 2
 135 595 134 600 134 604 c 0
 134 609 135 614 137 617 c 2
 377 1010 l 2
 392 1034 400 1051 400 1094 c 2
 400 1109 l 2
 400 1137 397 1151 390 1151 c 0
 386 1151 381 1148 376 1139 c 2
 101 692 l 2
 78 655 75 650 75 611 c 2
 75 606 l 2
 75 566 76 555 100 520 c 2
 377 119 l 2
 383 110 388 101 391 101 c 0
EndSplineSet
EndChar

StartChar: guillemotright
Encoding: 118 187 75
Width: 494
VWidth: 0
Flags: HW
PickledData: "(dp1
S'com.typemytype.robofont.layerData'
p2
(dp3
S'b'
(dp4
S'name'
p5
S'guillemotright'
p6
sS'lib'
p7
(dp8
sS'unicodes'
p9
(tsS'width'
p10
I494
sS'contours'
p11
(tsS'components'
p12
(tsS'anchors'
p13
(tsss."
LayerCount: 2
Fore
SplineSet
84 1151 m 0
 78 1151 75 1138 75 1113 c 2
 75 1085 l 2
 75 1042 83 1034 99 1011 c 2
 337 660 l 2
 340 657 341 652 341 648 c 0
 341 643 340 638 338 635 c 2
 98 242 l 2
 83 218 75 201 75 158 c 2
 75 143 l 2
 75 115 78 101 85 101 c 0
 89 101 94 104 99 113 c 2
 374 560 l 2
 397 597 400 602 400 641 c 2
 400 646 l 2
 400 686 399 697 375 732 c 2
 98 1133 l 2
 92 1142 87 1151 84 1151 c 0
EndSplineSet
EndChar

StartChar: h
Encoding: 72 104 76
Width: 639
VWidth: 0
Flags: HW
PickledData: "(dp1
S'com.typemytype.robofont.layerData'
p2
(dp3
S'b'
(dp4
S'name'
p5
S'h'
sS'lib'
p6
(dp7
sS'unicodes'
p8
(tsS'width'
p9
F639.37199999999996
sS'contours'
p10
(tsS'components'
p11
(tsS'anchors'
p12
(tsss."
LayerCount: 2
Fore
SplineSet
118 0 m 2
 151 0 l 2
 166 0 173 9 173 52 c 2
 173 613 l 2
 173 773 271 957 370 957 c 0
 451 957 476 858 476 633 c 2
 476.372 52 l 2
 476.372 9 483.372 0 498.372 0 c 2
 530.372 0 l 2
 543.372 0 553.372 9 553.372 52 c 2
 553 599 l 2
 553 935 501 1019 375 1019 c 0
 307 1019 225 971 180 820 c 0
 179 817 177 816 175 816 c 0
 174 816 173 817 173 821 c 2
 173 1382 l 2
 173 1425 165 1438 150 1438 c 2
 118 1438 l 2
 104 1438 96 1425 96 1382 c 2
 96 52 l 2
 96 9 104 0 118 0 c 2
EndSplineSet
EndChar

StartChar: hungarumlaut
Encoding: 355 733 77
Width: 594
VWidth: 0
Flags: HW
LayerCount: 2
Fore
SplineSet
381 1166 m 2
 388 1166 l 2
 401 1166 402 1181 406 1205 c 1
 476 1533 l 2
 478 1545 480 1559 480 1570 c 0
 480 1586 477 1598 470 1598 c 2
 415 1598 l 2
 398 1598 392 1586 389 1543 c 2
 368 1233 l 2
 367 1219 367 1207 367 1198 c 0
 367 1171 371 1166 381 1166 c 2
257 1166 m 2
 264 1166 l 2
 278 1166 279 1181 284 1205 c 2
 352 1533 l 2
 355 1545 356 1559 356 1570 c 0
 356 1586 354 1598 346 1598 c 2
 290 1598 l 2
 274 1598 268 1586 266 1543 c 2
 245 1233 l 2
 244 1219 243 1207 243 1198 c 0
 243 1171 247 1166 257 1166 c 2
EndSplineSet
EndChar

StartChar: hyphen
Encoding: 13 45 78
Width: 358
VWidth: 0
Flags: HW
LayerCount: 2
Fore
SplineSet
100 484 m 2
 254 484 l 2
 268 484 278 498 278 541 c 2
 278 602 l 2
 278 645 268 659 254 659 c 2
 100 659 l 2
 84 659 77 645 77 602 c 2
 77 541 l 2
 77 498 84 484 100 484 c 2
EndSplineSet
EndChar

StartChar: i
Encoding: 73 105 79
Width: 281
VWidth: 0
Flags: HW
PickledData: "(dp1
S'com.typemytype.robofont.layerData'
p2
(dp3
S'b'
(dp4
S'name'
p5
S'i'
sS'lib'
p6
(dp7
sS'unicodes'
p8
(tsS'width'
p9
I281
sS'contours'
p10
(tsS'components'
p11
(tsS'anchors'
p12
(tsss."
LayerCount: 2
Fore
SplineSet
119 1179 m 2
 171 1179 l 2
 186 1179 193 1183 193 1226 c 2
 193 1274 l 2
 193 1317 186 1321 171 1321 c 2
 119 1321 l 2
 104 1321 96 1317 96 1274 c 2
 96 1226 l 2
 96 1183 104 1179 119 1179 c 2
129 0 m 2
 161 0 l 2
 176 0 183 4 183 47 c 2
 183 959 l 2
 183 1002 176 1006 161 1006 c 2
 129 1006 l 2
 114 1006 106 1002 106 959 c 2
 106 47 l 2
 106 4 114 0 129 0 c 2
EndSplineSet
EndChar

StartChar: j
Encoding: 74 106 80
Width: 316
VWidth: 0
Flags: HW
PickledData: "(dp1
S'com.typemytype.robofont.layerData'
p2
(dp3
S'b'
(dp4
S'name'
p5
S'j'
sS'lib'
p6
(dp7
sS'unicodes'
p8
(tsS'width'
p9
I316
sS'contours'
p10
(tsS'components'
p11
(tsS'anchors'
p12
(tsss."
LayerCount: 2
Fore
SplineSet
153 1179 m 2
 205 1179 l 2
 220 1179 227 1183 227 1226 c 2
 227 1274 l 2
 227 1317 220 1321 205 1321 c 2
 153 1321 l 2
 138 1321 130 1317 130 1274 c 2
 130 1226 l 2
 130 1183 138 1179 153 1179 c 2
39 -291 m 2
 78 -291 l 2
 184 -291 217 -259 217 6 c 2
 217 959 l 2
 217 1002 210 1006 194 1006 c 2
 163 1006 l 2
 149 1006 140 1002 140 959 c 2
 140 19 l 2
 140 -167 134 -212 77 -212 c 2
 39 -212 l 2
 22 -212 19 -221 19 -234 c 2
 19 -266 l 2
 19 -282 24 -291 39 -291 c 2
EndSplineSet
EndChar

StartChar: k
Encoding: 75 107 81
Width: 631
VWidth: 0
Flags: HW
PickledData: "(dp1
S'com.typemytype.robofont.layerData'
p2
(dp3
S'b'
(dp4
S'name'
p5
S'k'
sS'lib'
p6
(dp7
sS'unicodes'
p8
(tsS'width'
p9
I631
sS'contours'
p10
(tsS'components'
p11
(tsS'anchors'
p12
(tsss."
LayerCount: 2
Fore
SplineSet
120 0 m 2
 154 0 l 2
 169 0 177 24 177 67 c 2
 177 308 l 2
 177 319 179 325 181 330 c 1
 183 332 258 459 284 498 c 0
 287 502 289 503 290 503 c 0
 294 503 295 498 296 495 c 2
 504.215 67 l 1
 520.215 31 535.215 0 548.215 0 c 2
 587 0 l 2
 594 0 599 9 599 22 c 0
 599 34 595 50 587 67 c 2
 344 545 l 2
 344 546 340 549 340 553 c 0
 340 556 342 558 344 561 c 2
 572 939 l 2
 583 958 588 976 588 989 c 0
 588 999 584 1006 578 1006 c 2
 541 1006 l 2
 527 1006 509 975 485 939 c 1
 183 426 l 2
 181 424 180 424 180 424 c 1
 178 424 177 427 177 433 c 2
 177 1371 l 2
 177 1414 169 1438 154 1438 c 2
 120 1438 l 2
 106 1438 98 1414 98 1371 c 2
 98 67 l 2
 98 24 106 0 120 0 c 2
EndSplineSet
EndChar

StartChar: l
Encoding: 76 108 82
Width: 280
VWidth: 0
Flags: HW
PickledData: "(dp1
S'com.typemytype.robofont.layerData'
p2
(dp3
S'b'
(dp4
S'name'
p5
S'l'
sS'lib'
p6
(dp7
sS'unicodes'
p8
(tsS'width'
p9
I280
sS'contours'
p10
(tsS'components'
p11
(tsS'anchors'
p12
(tsss."
LayerCount: 2
Fore
SplineSet
131 0 m 2
 163 0 l 2
 178 0 186 24 186 67 c 2
 186 1371 l 2
 186 1414 178 1438 163 1438 c 2
 131 1438 l 2
 117 1438 109 1414 109 1371 c 2
 109 67 l 2
 109 24 117 0 131 0 c 2
EndSplineSet
EndChar

StartChar: less
Encoding: 28 60 83
Width: 494
VWidth: 0
Flags: HW
PickledData: "(dp1
S'com.typemytype.robofont.layerData'
p2
(dp3
S'b'
(dp4
S'name'
p5
S'less'
p6
sS'lib'
p7
(dp8
sS'unicodes'
p9
(tsS'width'
p10
I494
sS'contours'
p11
(tsS'components'
p12
(tsS'anchors'
p13
(tsss."
LayerCount: 2
Fore
SplineSet
391 101 m 0
 397 101 400 114 400 139 c 2
 400 167 l 2
 400 210 392 218 376 241 c 2
 138 592 l 2
 135 595 134 600 134 604 c 0
 134 609 135 614 137 617 c 2
 377 1010 l 2
 392 1034 400 1051 400 1094 c 2
 400 1109 l 2
 400 1137 397 1151 390 1151 c 0
 386 1151 381 1148 376 1139 c 2
 101 692 l 2
 78 655 75 650 75 611 c 2
 75 606 l 2
 75 566 76 555 100 520 c 2
 377 119 l 2
 383 110 388 101 391 101 c 0
EndSplineSet
EndChar

StartChar: m
Encoding: 77 109 84
Width: 1017
VWidth: 0
Flags: HW
PickledData: "(dp1
S'com.typemytype.robofont.layerData'
p2
(dp3
S'b'
(dp4
S'name'
p5
S'm'
sS'lib'
p6
(dp7
sS'unicodes'
p8
(tsS'width'
p9
F1017.002
sS'contours'
p10
(tsS'components'
p11
(tsS'anchors'
p12
(tsss."
LayerCount: 2
Fore
SplineSet
118 0 m 2
 150 0 l 2
 164 0 173 9 173 52 c 2
 173 622 l 2
 173 755 254 957 362 957 c 0
 433 957 473 887 473 662 c 2
 473 52 l 2
 473 9 481.001 0 496.001 0 c 2
 529.001 0 l 2
 543.001 0 552 9 552 52 c 2
 552 622 l 2
 552 755 633 957 741 957 c 0
 812 957 852 887 852 662 c 2
 852 52 l 2
 852 9 860.002 0 875.002 0 c 2
 908.002 0 l 2
 922.002 0 931 9 931 52 c 2
 931 608 l 2
 931 944 859 1019 742 1019 c 0
 669 1019 587 963 547 792 c 0
 546 788 545 787 544 787 c 0
 543 787 543 789 542 792 c 0
 506 971 455 1019 363 1019 c 0
 290 1019 208 963 168 792 c 0
 167 785 165 777 163 777 c 0
 159 777 158 782 157 790 c 2
 148 952 l 1
 143 1002 137 1006 121 1006 c 2
 115 1006 l 2
 100 1006 94 982 94 939 c 2
 94 52 l 2
 94 9 103 0 118 0 c 2
EndSplineSet
EndChar

StartChar: macron
Encoding: 110 175 85
Width: 540
VWidth: 0
Flags: HW
PickledData: "(dp1
S'com.typemytype.robofont.layerData'
p2
(dp3
s."
LayerCount: 2
Fore
SplineSet
98 0 m 2
 462 0 l 2
 475 0 485 0 485 27 c 2
 485 35 l 2
 485 60 475 60 462 60 c 2
 98 60 l 2
 85 60 75 60 75 33 c 2
 75 25 l 2
 75 0 85 0 98 0 c 2
EndSplineSet
EndChar

StartChar: minus
Encoding: 418 8722 86
Width: 540
VWidth: 0
Flags: HW
PickledData: "(dp1
S'com.typemytype.robofont.layerData'
p2
(dp3
S'b'
(dp4
S'name'
p5
S'minus'
p6
sS'lib'
p7
(dp8
sS'unicodes'
p9
(tsS'width'
p10
I540
sS'contours'
p11
(tsS'components'
p12
(tsS'anchors'
p13
(tsss."
LayerCount: 2
Fore
SplineSet
80 650 m 2
 460 650 l 2
 473 650 483 654 483 681 c 2
 483 689 l 2
 483 714 473 719 460 719 c 2
 80 719 l 2
 67 719 57 714 57 687 c 2
 57 679 l 2
 57 654 67 650 80 650 c 2
EndSplineSet
EndChar

StartChar: multiply
Encoding: 146 215 87
Width: 801
VWidth: 0
Flags: HW
PickledData: "(dp1
S'com.typemytype.robofont.layerData'
p2
(dp3
s."
LayerCount: 2
Fore
SplineSet
619 457 m 2
 469 608 l 1
 619 759 l 2
 648 788 641 800 628 814 c 1
 617 824 l 2
 604 837 592 843 563 814 c 2
 413 664 l 1
 261 815 l 2
 232 844 220 838 208 825 c 2
 197 814 l 2
 184 801 177 788 206 759 c 2
 357 608 l 1
 206 457 l 2
 177 428 183 416 196 403 c 2
 206 392 l 1
 220 379 232 372 261 401 c 2
 413 552 l 1
 563 402 l 2
 592 373 605 380 618 393 c 2
 629 404 l 2
 642 416 648 428 619 457 c 2
EndSplineSet
EndChar

StartChar: n
Encoding: 78 110 88
Width: 639
VWidth: 0
Flags: HW
PickledData: "(dp1
S'com.typemytype.robofont.layerData'
p2
(dp3
S'b'
(dp4
S'name'
p5
S'n'
sS'lib'
p6
(dp7
sS'unicodes'
p8
(tsS'width'
p9
F639.00099999999998
sS'contours'
p10
(tsS'components'
p11
(tsS'anchors'
p12
(tsss."
LayerCount: 2
Fore
SplineSet
119 0 m 2
 151 0 l 2
 165 0 174 9 174 52 c 2
 174 642 l 2
 174 798 251 957 359 957 c 0
 430 957 473 887 473 662 c 2
 474.001 52 l 2
 474.001 9 482.001 0 497.001 0 c 2
 530.001 0 l 2
 544.001 0 553.001 9 553.001 52 c 2
 552 642 l 2
 551 937 476 1019 364 1019 c 0
 291 1019 209 983 169 812 c 0
 168 805 166 797 164 797 c 0
 160 797 159 802 158 810 c 2
 149 952 l 1
 144 1002 138 1006 122 1006 c 2
 116 1006 l 2
 101 1006 95 982 95 939 c 2
 95 52 l 2
 95 9 104 0 119 0 c 2
EndSplineSet
EndChar

StartChar: nine
Encoding: 25 57 89
Width: 727
VWidth: 0
Flags: HW
PickledData: "(dp1
S'com.typemytype.robofont.layerData'
p2
(dp3
S'b'
(dp4
S'name'
p5
S'nine'
p6
sS'lib'
p7
(dp8
sS'unicodes'
p9
(tsS'width'
p10
I727
sS'contours'
p11
(tsS'components'
p12
(tsS'anchors'
p13
(tsss."
LayerCount: 2
Fore
SplineSet
368 641 m 0
 216 641 167 784 167 1006 c 0
 167 1250 236 1403 369 1403 c 0
 513 1403 565 1247 565 875 c 2
 565 714 l 1
 502 655 419 641 368 641 c 0
336 -12 m 0
 520 -12 643 85 643 694 c 0
 643 1239 610 1472 369 1472 c 0
 212 1472 89 1332 89 1004 c 0
 89 747 158 573 365 573 c 0
 440 573 513 602 561 646 c 1
 561 520 l 2
 561 193 486 61 339 61 c 0
 260 61 199 108 171 137 c 0
 169 139 165 144 159 144 c 0
 155 144 150 142 148 124 c 2
 146 96 l 1
 146 78 146 70 152 63 c 0
 193 15 275 -12 336 -12 c 0
EndSplineSet
EndChar

StartChar: numbersign
Encoding: 3 35 90
Width: 674
VWidth: 0
Flags: HW
PickledData: "(dp1
S'com.typemytype.robofont.layerData'
p2
(dp3
S'b'
(dp4
S'name'
p5
S'numbersign'
p6
sS'lib'
p7
(dp8
sS'unicodes'
p9
(tsS'width'
p10
I674
sS'contours'
p11
(tsS'components'
p12
(tsS'anchors'
p13
(tsss."
LayerCount: 2
Fore
SplineSet
256 375 m 1
 297 914 l 1
 459 914 l 1
 418 375 l 1
 256 375 l 1
161 -205 m 2
 197 -205 l 2
 205 -205 212 -191 214 -170 c 2
 247 285 l 1
 409 285 l 1
 376 -170 l 2
 375 -187 378 -205 384 -205 c 2
 420 -205 l 2
 427 -205 434 -191 436 -170 c 2
 469 285 l 1
 553 285 l 2
 570 285 576 289 576 322 c 2
 576 338 l 2
 576 371 565 375 548 375 c 2
 478 375 l 1
 520 914 l 1
 598 914 l 2
 612 914 616 918 616 951 c 2
 616 969 l 2
 616 992 609 1006 595 1006 c 2
 529 1006 l 1
 572 1530 l 2
 574 1547 571 1565 566 1565 c 2
 529 1565 l 2
 522 1565 515 1551 513 1530 c 2
 469 1006 l 1
 307 1006 l 1
 350 1530 l 2
 351 1547 348 1565 343 1565 c 2
 305 1565 l 2
 299 1565 291 1551 289 1530 c 2
 246 1006 l 1
 161 1006 l 2
 146 1006 139 992 139 969 c 2
 139 951 l 2
 139 918 149 914 164 914 c 2
 236 914 l 1
 194 375 l 1
 116 375 l 2
 101 375 98 371 98 338 c 2
 98 322 l 2
 98 289 106 285 121 285 c 2
 186 285 l 1
 153 -170 l 2
 151 -187 155 -205 161 -205 c 2
EndSplineSet
EndChar

StartChar: o
Encoding: 79 111 91
Width: 673
VWidth: 0
Flags: HW
PickledData: "(dp1
S'com.typemytype.robofont.guides'
p2
(tsS'com.typemytype.robofont.layerData'
p3
(dp4
S'b'
(dp5
S'name'
p6
S'o'
sS'lib'
p7
(dp8
sS'unicodes'
p9
(tsS'width'
p10
I673
sS'contours'
p11
(tsS'components'
p12
(tsS'anchors'
p13
(tsss."
LayerCount: 2
Fore
SplineSet
339 -12 m 0
 462 -12 593 66 593 503 c 0
 593 951 474 1019 339 1019 c 0
 202 1019 80 951 80 503 c 0
 80 65 213 -12 339 -12 c 0
338 50 m 0
 239 50 158 115 158 503 c 0
 158 915 245 957 338 957 c 0
 428 957 516 917 516 503 c 0
 516 112 434 50 338 50 c 0
EndSplineSet
EndChar

StartChar: one
Encoding: 17 49 92
Width: 410
VWidth: 0
Flags: HW
PickledData: "(dp1
S'com.typemytype.robofont.layerData'
p2
(dp3
S'b'
(dp4
S'name'
p5
S'one'
p6
sS'lib'
p7
(dp8
sS'unicodes'
p9
(tsS'width'
p10
I410
sS'contours'
p11
(tsS'components'
p12
(tsS'anchors'
p13
(tsss."
LayerCount: 2
Fore
SplineSet
221 0 m 2
 255 0 l 2
 268 0 277 24 277 67 c 2
 277 1404 l 2
 277 1447 265 1440 239 1433 c 2
 91 1390 l 2
 78 1386 70 1383 70 1371 c 2
 70 1336 l 2
 70 1309 78 1309 92 1313 c 2
 185 1339 l 2
 193 1341 199 1340 199 1320 c 2
 199 67 l 2
 199 24 206 0 221 0 c 2
EndSplineSet
EndChar

StartChar: oslash
Encoding: 179 248 93
Width: 819
VWidth: 0
Flags: HW
PickledData: "(dp1
S'com.typemytype.robofont.guides'
p2
(tsS'com.typemytype.robofont.layerData'
p3
(dp4
S'b'
(dp5
S'name'
p6
S'oslash'
p7
sS'lib'
p8
(dp9
sS'unicodes'
p10
(tsS'width'
p11
I819
sS'contours'
p12
(tsS'components'
p13
(tsS'anchors'
p14
(tsss."
LayerCount: 2
Fore
SplineSet
97 -90 m 2
 101 -91 107 -84 111 -71 c 1
 608 1047 l 2
 613 1056 614 1069 611 1069 c 1
 583 1082 l 2
 580 1083 574 1075 568 1063 c 2
 70 -53 l 1
 67 -63 65 -74 67 -75 c 2
 97 -90 l 2
EndSplineSet
Refer: 91 111 N 1 0 0 1 0 0 2
EndChar

StartChar: p
Encoding: 80 112 94
Width: 686
VWidth: 0
Flags: HW
PickledData: "(dp1
S'com.typemytype.robofont.layerData'
p2
(dp3
S'b'
(dp4
S'name'
p5
S'p'
sS'lib'
p6
(dp7
sS'unicodes'
p8
(tsS'width'
p9
F686.30499999999995
sS'contours'
p10
(tsS'components'
p11
(tsS'anchors'
p12
(tsss."
LayerCount: 2
Fore
SplineSet
352 50 m 0
 259 50 172 225 172 507 c 0
 172 765 253 957 352 957 c 0
 448 957 529.305 798 529.305 507 c 0
 529.305 143 442 50 352 50 c 0
117 -427 m 2
 149 -427 l 2
 163 -427 172 -408 172 -365 c 2
 172 176 l 2
 172 182 172 184 173 184 c 2
 173 184 175 182 176 179 c 0
 217 50 283 -12 357 -12 c 0
 487 -12 607 128 607.305 507 c 0
 607 867 489 1019 364 1019 c 0
 289 1019 205 944 162 782 c 0
 160 778 159 776 157 776 c 0
 156 776 153 781 153 787 c 0
 153 820 148 889 143 927 c 0
 135 1000 127 1011 117 1011 c 2
 112 1011 l 2
 97 1011 94 997 94 954 c 2
 94 -365 l 2
 94 -408 102 -427 117 -427 c 2
EndSplineSet
EndChar

StartChar: paragraph
Encoding: 114 182 95
Width: 897
VWidth: 0
Flags: HW
PickledData: "(dp1
S'com.typemytype.robofont.layerData'
p2
(dp3
s."
LayerCount: 2
Fore
SplineSet
480 -1 m 2
 484 -1 l 2
 517 -1 521 23 521 66 c 2
 521 896 l 1
 694 896 l 2
 704 896 713 887 713 875 c 2
 713 66 l 2
 713 23 717 -1 750 -1 c 2
 754 -1 l 2
 787 -1 791 23 791 66 c 2
 791 1338 l 2
 791 1381 802 1405 759 1416 c 0
 721 1426 666 1438 491 1438 c 0
 200 1438 73 1360 73 1163 c 0
 73 959 244 896 423 896 c 2
 443 896 l 1
 443 66 l 2
 443 23 447 -1 480 -1 c 2
EndSplineSet
EndChar

StartChar: parenleft
Encoding: 8 40 96
Width: 377
VWidth: 0
Flags: HW
LayerCount: 2
Fore
SplineSet
266 -143 m 0
 279 -151 292 -111 292 -73 c 2
 292 -55 l 2
 292 14 279 15 257 46 c 1
 213 112 168 236 168 699 c 0
 168 1162 212 1284 256 1350 c 0
 277 1381 292 1381 292 1450 c 2
 292 1470 l 2
 292 1508 279 1548 266 1540 c 0
 131 1460 92 1100 92 699 c 0
 92 299 131 -62 266 -143 c 0
EndSplineSet
EndChar

StartChar: parenright
Encoding: 9 41 97
Width: 382
VWidth: 0
Flags: HW
LayerCount: 2
Fore
SplineSet
113 -143 m 0
 248 -63 288 297 288 698 c 0
 288 1098 248 1459 113 1540 c 0
 100 1548 86 1508 86 1470 c 2
 86 1452 l 2
 86 1383 102 1382 122 1351 c 0
 167 1285 211 1161 211 698 c 0
 211 235 167 113 122 47 c 0
 102 16 86 16 86 -53 c 2
 86 -73 l 2
 86 -111 100 -151 113 -143 c 0
EndSplineSet
EndChar

StartChar: percent
Encoding: 5 37 98
Width: 1003
VWidth: 0
Flags: HW
PickledData: "(dp1
S'com.typemytype.robofont.layerData'
p2
(dp3
S'b'
(dp4
S'name'
p5
S'percent'
p6
sS'lib'
p7
(dp8
sS'unicodes'
p9
(tsS'width'
p10
I1003
sS'contours'
p11
(tsS'components'
p12
(tsS'anchors'
p13
(tsss."
LayerCount: 2
Fore
SplineSet
787 -1 m 0
 887 -1 939 136 939 374 c 0
 939 610 889 755 787 755 c 0
 683 755 633 610 633 374 c 0
 633 136 685 -1 787 -1 c 0
787 69 m 0
 730 69 694 193 694 377 c 0
 694 565 727 685 787 685 c 0
 848 685 878 565 878 377 c 0
 878 193 846 69 787 69 c 0
208 682 m 0
 308 682 360 819 360 1057 c 0
 360 1293 310 1438 208 1438 c 0
 104 1438 54 1293 54 1057 c 0
 54 819 106 682 208 682 c 0
208 752 m 0
 151 752 115 876 115 1060 c 0
 115 1248 148 1368 208 1368 c 0
 269 1368 299 1248 299 1060 c 0
 299 876 267 752 208 752 c 0
365 -82 m 2
 376 -82 l 2
 393 -82 407 -54 413 -12 c 2
 635 1466 l 1
 641 1499 632 1536 620 1536 c 2
 609 1536 l 2
 594 1536 579 1508 572 1466 c 2
 350 -12 l 2
 345 -45 353 -82 365 -82 c 2
EndSplineSet
EndChar

StartChar: period
Encoding: 14 46 99
Width: 270
VWidth: 0
Flags: HW
PickledData: "(dp1
S'com.typemytype.robofont.layerData'
p2
(dp3
S'b'
(dp4
S'name'
p5
S'period'
p6
sS'lib'
p7
(dp8
sS'unicodes'
p9
(tsS'width'
p10
I270
sS'contours'
p11
(tsS'components'
p12
(tsS'anchors'
p13
(tsss."
LayerCount: 2
Fore
SplineSet
102 0 m 2
 174 0 l 2
 189 0 200 14 200 57 c 2
 200 147 l 2
 200 190 189 204 174 204 c 2
 102 204 l 2
 88 204 76 190 76 147 c 2
 76 57 l 2
 76 14 88 0 102 0 c 2
EndSplineSet
EndChar

StartChar: plus
Encoding: 11 43 100
Width: 801
VWidth: 0
Flags: HW
PickledData: "(dp1
S'com.typemytype.robofont.layerData'
p2
(dp3
S'b'
(dp4
S'name'
p5
S'plus'
p6
sS'lib'
p7
(dp8
sS'unicodes'
p9
(tsS'width'
p10
I801
sS'contours'
p11
(tsS'components'
p12
(tsS'anchors'
p13
(tsss."
LayerCount: 2
Fore
SplineSet
406 310 m 2
 421 310 l 2
 439 310 452 314 452 355 c 2
 452 549 l 2
 452 569 459 571 469 571 c 2
 658 571 l 2
 674 571 689 575 689 606 c 2
 689 613 l 2
 689 645 674 648 658 648 c 2
 469 648 l 2
 459 648 452 650 452 670 c 2
 452 861 l 2
 452 902 439 906 421 906 c 2
 406 906 l 2
 387 906 373 902 373 861 c 2
 373 670 l 2
 373 650 367 648 358 648 c 2
 166 648 l 2
 149 648 135 645 135 613 c 2
 135 606 l 2
 135 575 149 571 166 571 c 2
 358 571 l 2
 367 571 373 569 373 549 c 2
 373 355 l 2
 373 314 387 310 406 310 c 2
EndSplineSet
EndChar

StartChar: q
Encoding: 81 113 101
Width: 683
VWidth: 0
Flags: HW
PickledData: "(dp1
S'com.typemytype.robofont.layerData'
p2
(dp3
S'b'
(dp4
S'name'
p5
S'q'
sS'lib'
p6
(dp7
sS'unicodes'
p8
(tsS'width'
p9
F683.30499999999995
sS'contours'
p10
(tsS'components'
p11
(tsS'anchors'
p12
(tsss."
LayerCount: 2
Fore
SplineSet
335 50 m 0
 245 50 157 143 157 507 c 0
 157 798 238 957 335 957 c 0
 433 957 514.305 765 514.305 507 c 0
 514.305 225 428 50 335 50 c 0
537.305 -427 m 2
 569.305 -427 l 2
 584.305 -427 592.305 -408 592.305 -365 c 2
 592.305 954 l 2
 592.305 997 589.305 1011 574.305 1011 c 2
 569.305 1011 l 2
 559.305 1011 551.305 1000 543.305 927 c 0
 538.305 889 533 811 533 778 c 0
 533 772 530 767 529 767 c 0
 527 767 526 769 524 773 c 0
 482 935 425 1019 338 1019 c 0
 213 1019 79 904 79 507 c 0
 79 99 200 -12 329 -12 c 0
 403 -12 468 50 509 179 c 0
 510 182 512 184 512 184 c 2
 513 184 513 182 513 176 c 2
 514.305 -365 l 2
 514.305 -408 523.305 -427 537.305 -427 c 2
EndSplineSet
EndChar

StartChar: question
Encoding: 31 63 102
Width: 881
VWidth: 0
Flags: HW
PickledData: "(dp1
S'com.typemytype.robofont.layerData'
p2
(dp3
S'b'
(dp4
S'name'
p5
S'question'
p6
sS'lib'
p7
(dp8
sS'unicodes'
p9
(tsS'width'
p10
I881
sS'contours'
p11
(tsS'components'
p12
(tsS'anchors'
p13
(tsss."
LayerCount: 2
Fore
SplineSet
324 464 m 0
 350 451 353 478 353 478 c 1
 401 589 415 641 513 700 c 0
 692 808 784 863 784 1075 c 0
 784 1306 680 1451 421 1451 c 0
 245 1451 182 1423 105 1382 c 0
 79 1368 63 1355 73 1337 c 2
 80 1324 l 2
 92 1302 102 1299 129 1314 c 0
 212 1360 263 1388 418 1388 c 0
 636 1388 703 1273 713 1097 c 0
 722 946 664 854 523 776 c 0
 402 709 367 682 304 514 c 1
 304 514 289 486 307 474 c 0
 314 469 320 466 324 464 c 0
302 0 m 2
 374 0 l 2
 389 0 400 14 400 57 c 2
 400 147 l 2
 400 190 389 204 374 204 c 2
 302 204 l 2
 288 204 276 190 276 147 c 2
 276 57 l 2
 276 14 288 0 302 0 c 2
EndSplineSet
EndChar

StartChar: quotedbl
Encoding: 2 34 103
Width: 379
VWidth: 0
Flags: HW
LayerCount: 2
Fore
SplineSet
247 772 m 2
 249 772 l 2
 264 772 263 796 265 839 c 2
 286 1350 l 2
 288 1393 278 1438 263 1438 c 2
 231 1438 l 2
 217 1438 205 1394 207 1351 c 2
 231 839 l 2
 233 796 233 772 247 772 c 2
130 772 m 2
 132 772 l 2
 146 772 146 796 147 839 c 2
 168 1350 l 2
 170 1393 160 1438 146 1438 c 2
 115 1438 l 2
 99 1438 89 1394 91 1351 c 2
 114 839 l 2
 116 796 116 772 130 772 c 2
EndSplineSet
EndChar

StartChar: quoteleft
Encoding: 382 8216 104
Width: 296
VWidth: 0
Flags: HW
LayerCount: 2
Fore
SplineSet
115 911 m 2
 182 911 l 2
 196 911 203 932 203 975 c 2
 203 1178 l 2
 203 1216 195 1228 182 1228 c 2
 153 1228 l 2
 148 1228 147 1239 147 1255 c 0
 147 1279 159 1356 182 1399 c 0
 197 1426 203 1420 203 1474 c 2
 203 1484 l 2
 203 1520 192 1535 180 1529 c 0
 133 1506 88 1370 88 1133 c 2
 88 988 l 2
 88 945 99 911 115 911 c 2
EndSplineSet
EndChar

StartChar: quoteright
Encoding: 383 8217 105
Width: 290
VWidth: 0
Flags: HW
LayerCount: 2
Fore
SplineSet
114 917 m 0
 162 940 207 1076 207 1313 c 2
 207 1458 l 2
 207 1501 195 1535 180 1535 c 2
 113 1535 l 2
 98 1535 92 1514 92 1471 c 2
 92 1268 l 2
 92 1230 100 1218 113 1218 c 2
 141 1218 l 2
 147 1218 147 1207 147 1191 c 0
 147 1167 136 1090 113 1047 c 0
 98 1020 92 1026 92 972 c 2
 92 962 l 2
 92 926 102 911 114 917 c 0
EndSplineSet
EndChar

StartChar: r
Encoding: 82 114 106
Width: 400
VWidth: 0
Flags: HW
PickledData: "(dp1
S'com.typemytype.robofont.layerData'
p2
(dp3
S'b'
(dp4
S'name'
p5
S'r'
sS'lib'
p6
(dp7
sS'unicodes'
p8
(tsS'width'
p9
I400
sS'contours'
p10
(tsS'components'
p11
(tsS'anchors'
p12
(tsss."
LayerCount: 2
Fore
SplineSet
118 0 m 2
 150 0 l 2
 164 0 173 10 173 53 c 2
 173 572 l 2
 173 705 239 925 306 925 c 2
 329 925 l 2
 345 925 353 932 353 966 c 2
 353 974 l 2
 353 1007 345 1011 329 1011 c 2
 314 1011 l 2
 250 1011 195 902 169 799 c 0
 167 792 165 777 163 777 c 0
 159 777 158 789 157 798 c 2
 148 942 l 1
 143 992 137 1006 121 1006 c 2
 115 1006 l 2
 100 1006 94 972 94 929 c 2
 94 53 l 2
 94 10 103 0 118 0 c 2
EndSplineSet
EndChar

StartChar: registered
Encoding: 109 174 107
Width: 1306
VWidth: 0
Flags: HW
PickledData: "(dp1
S'com.typemytype.robofont.layerData'
p2
(dp3
S'b'
(dp4
S'name'
p5
S'registered'
p6
sS'lib'
p7
(dp8
sS'unicodes'
p9
(tsS'width'
p10
I1306
sS'contours'
p11
(tsS'components'
p12
(tsS'anchors'
p13
(tsss."
LayerCount: 2
Fore
SplineSet
508 325 m 2
 518 325 522 328 522 348 c 2
 522 715 l 2
 522 720 523 723 526 723 c 2
 630 723 l 2
 725 723 791 715 791 597 c 2
 791 357 l 2
 791 333 795 325 805 325 c 2
 840 325 l 2
 847 325 855 333 855 357 c 2
 855 598 l 2
 855 712 799 728 750 745 c 0
 747 746 745 747 745 748 c 0
 745 750 747 751 749 751 c 0
 819 765 859 823 859 933 c 0
 859 1117 743 1123 613 1123 c 2
 471 1123 l 2
 461 1123 456 1122 456 1098 c 2
 456 348 l 2
 456 328 461 325 471 325 c 2
 508 325 l 2
1216 718 m 0
 1216 1105 1054 1451 653 1451 c 0
 254 1451 90 1105 90 718 c 0
 90 331 254 -13 653 -13 c 0
 1054 -13 1216 331 1216 718 c 0
169 714 m 0
 169 1049 293 1388 655 1388 c 0
 1017 1388 1141 1049 1141 714 c 0
 1141 390 1017 51 655 51 c 0
 293 51 169 390 169 714 c 0
525 779 m 2
 522 779 522 782 522 784 c 2
 522 1069 l 2
 522 1072 523 1074 526 1074 c 2
 613 1074 l 2
 730 1074 796 1079 796 933 c 0
 796 784 749 779 629 779 c 2
 525 779 l 2
EndSplineSet
EndChar

StartChar: ring
Encoding: 352 730 108
Width: 597
VWidth: 0
Flags: HW
PickledData: "(dp1
S'com.typemytype.robofont.layerData'
p2
(dp3
S'b'
(dp4
S'name'
p5
S'ring'
p6
sS'lib'
p7
(dp8
sS'unicodes'
p9
(tsS'width'
p10
I597
sS'contours'
p11
(tsS'components'
p12
(tsS'anchors'
p13
(tsss."
LayerCount: 2
Fore
SplineSet
288 211 m 0
 329 211 420 236 420 359 c 0
 420 487 333 508 288 508 c 0
 242 508 155 487 155 359 c 0
 155 235 246 211 288 211 c 0
288 248 m 0
 257 248 201 268 201 359 c 0
 201 458 259 470 288 470 c 0
 316 470 374 458 374 359 c 0
 374 267 319 248 288 248 c 0
EndSplineSet
EndChar

StartChar: s
Encoding: 83 115 109
Width: 545
VWidth: 0
Flags: HW
PickledData: "(dp1
S'com.typemytype.robofont.layerData'
p2
(dp3
S'b'
(dp4
S'name'
p5
S's'
sS'lib'
p6
(dp7
sS'unicodes'
p8
(tsS'width'
p9
I545
sS'contours'
p10
((dp11
S'points'
p12
((dp13
S'segmentType'
p14
S'curve'
p15
sS'x'
F263
sS'smooth'
p16
I01
sS'y'
F-12
s(dp17
S'y'
F-12
sS'x'
F378
sg16
I00
s(dp18
S'y'
F70
sS'x'
F494
sg16
I00
s(dp19
g14
S'curve'
p20
sS'x'
F494
sg16
I01
sS'y'
F258
s(dp21
S'y'
F421
sS'x'
F494
sg16
I00
s(dp22
S'y'
F490
sS'x'
F438
sg16
I00
s(dp23
g14
S'curve'
p24
sS'x'
F293
sg16
I01
sS'y'
F546
s(dp25
S'y'
F594
sS'x'
F168
sg16
I00
s(dp26
S'y'
F647
sS'x'
F155
sg16
I00
s(dp27
g14
S'curve'
p28
sS'x'
F155
sg16
I01
sS'y'
F768
s(dp29
S'y'
F868
sS'x'
F155
sg16
I00
s(dp30
S'y'
F959
sS'x'
F209
sg16
I00
s(dp31
g14
S'curve'
p32
sS'x'
F319
sg16
I01
sS'y'
F959
s(dp33
S'y'
F959
sS'x'
F378
sg16
I00
s(dp34
S'y'
F937
sS'x'
F413
sg16
I00
s(dp35
g14
S'curve'
p36
sS'x'
F437
sg16
I01
sS'y'
F916
s(dp37
S'y'
F906
sS'x'
F447
sg16
I00
s(dp38
S'y'
F911
sS'x'
F460
sg16
I00
s(dp39
g14
S'curve'
p40
sS'x'
F460
sg16
I01
sS'y'
F936
s(dp41
g14
S'line'
p42
sS'x'
F460
sg16
I01
sS'y'
F950
s(dp43
S'y'
F961
sS'x'
F460
sg16
I00
s(dp44
S'y'
F968
sS'x'
F457
sg16
I00
s(dp45
g14
S'curve'
p46
sS'x'
F450
sg16
I01
sS'y'
F975
s(dp47
S'y'
F1004
sS'x'
F418
sg16
I00
s(dp48
S'y'
F1018
sS'x'
F370
sg16
I00
s(dp49
g14
S'curve'
p50
sS'x'
F310
sg16
I01
sS'y'
F1018
s(dp51
S'y'
F1018
sS'x'
F239
sg16
I00
s(dp52
S'y'
F979
sS'x'
F92
sg16
I00
s(dp53
g14
S'curve'
p54
sS'x'
F89
sg16
I01
sS'y'
F768
s(dp55
S'y'
F606
sS'x'
F87
sg16
I00
s(dp56
S'y'
F534
sS'x'
F132
sg16
I00
s(dp57
g14
S'curve'
p58
sS'x'
F274
sg16
I01
sS'y'
F483
s(dp59
S'y'
F430
sS'x'
F420
sg16
I00
s(dp60
S'y'
F340
sS'x'
F428
sg16
I00
s(dp61
g14
S'curve'
p62
sS'x'
F428
sg16
I01
sS'y'
F247
s(dp63
S'y'
F138
sS'x'
F428
sg16
I00
s(dp64
S'y'
F50
sS'x'
F367
sg16
I00
s(dp65
g14
S'curve'
p66
sS'x'
F261
sg16
I01
sS'y'
F50
s(dp67
S'y'
F50
sS'x'
F192
sg16
I00
s(dp68
S'y'
F69
sS'x'
F155
sg16
I00
s(dp69
g14
S'curve'
p70
sS'x'
F118
sg16
I01
sS'y'
F89
s(dp71
S'y'
F91
sS'x'
F116
sg16
I00
s(dp72
S'y'
F112
sS'x'
F91
sg16
I00
s(dp73
g14
S'curve'
p74
sS'x'
F91
sg16
I01
sS'y'
F74
s(dp75
g14
S'line'
p76
sS'x'
F91
sg16
I01
sS'y'
F65
s(dp77
S'y'
F38
sS'x'
F91
sg16
I00
s(dp78
S'y'
F32
sS'x'
F105
sg16
I00
s(dp79
g14
S'curve'
p80
sS'x'
F113
sg16
I01
sS'y'
F27
s(dp81
S'y'
F5
sS'x'
F150
sg16
I00
s(dp82
S'y'
F-12
sS'x'
F203
sg16
I00
stp83
stp84
sS'components'
p85
(tsS'anchors'
p86
(tsss."
LayerCount: 2
Fore
SplineSet
46 97 m 1
 107 23 169 -12 269 -12 c 0
 416 -12 500 101 500 248 c 0
 500 421 393 495 284 560 c 0
 191 615 150 670 150 779 c 0
 150 869 195 957 286 957 c 0
 353 957 391 931 433 886 c 1
 448 891 l 1
 469 923 l 1
 465 942 l 1
 415 995 352 1019 284 1019 c 0
 162 1019 81 919 81 776 c 0
 81 608 178 540 279 479 c 0
 360 430 431 372 431 249 c 0
 431 145 377 50 270 50 c 0
 188 50 134 92 81 156 c 1
 62 150 l 1
 45 121 l 1
 46 97 l 1
EndSplineSet
EndChar

StartChar: section
Encoding: 102 167 110
Width: 685
VWidth: 0
Flags: HW
PickledData: "(dp1
S'com.typemytype.robofont.layerData'
p2
(dp3
S'b'
(dp4
S'name'
p5
S'section'
p6
sS'lib'
p7
(dp8
sS'unicodes'
p9
(tsS'width'
p10
I685
sS'contours'
p11
((dp12
S'points'
p13
((dp14
S'segmentType'
p15
S'curve'
p16
sS'x'
F408
sS'smooth'
p17
I01
sS'y'
F-40
s(dp18
S'y'
F-40
sS'x'
F907
sg17
I00
s(dp19
S'y'
F96
sS'x'
F1036
sg17
I00
s(dp20
g15
S'curve'
p21
sS'x'
F1036
sg17
I01
sS'y'
F308
s(dp22
S'y'
F409
sS'x'
F1036
sg17
I00
s(dp23
S'y'
F474
sS'x'
F1003
sg17
I00
s(dp24
g15
S'curve'
p25
sS'x'
F940
sg17
I00
sS'y'
F518
s(dp26
S'y'
F574
sS'x'
F988
sg17
I00
s(dp27
S'y'
F650
sS'x'
F1036
sg17
I00
s(dp28
g15
S'curve'
p29
sS'x'
F1036
sg17
I01
sS'y'
F730
s(dp30
S'y'
F993
sS'x'
F1036
sg17
I00
s(dp31
S'y'
F1015
sS'x'
F811
sg17
I00
s(dp32
g15
S'curve'
p33
sS'x'
F418
sg17
I01
sS'y'
F1042
s(dp34
S'y'
F1071
sS'x'
F-11
sg17
I00
s(dp35
S'y'
F1081
sS'x'
F-35
sg17
I00
s(dp36
g15
S'curve'
p37
sS'x'
F-35
sg17
I01
sS'y'
F1177
s(dp38
S'y'
F1281
sS'x'
F-35
sg17
I00
s(dp39
S'y'
F1319
sS'x'
F112
sg17
I00
s(dp40
g15
S'curve'
p41
sS'x'
F430
sg17
I01
sS'y'
F1319
s(dp42
S'y'
F1319
sS'x'
F624
sg17
I00
s(dp43
S'y'
F1290
sS'x'
F714
sg17
I00
s(dp44
g15
S'curve'
p45
sS'x'
F815
sg17
I01
sS'y'
F1259
s(dp46
S'y'
F1247
sS'x'
F854
sg17
I00
s(dp47
S'y'
F1250
sS'x'
F901
sg17
I00
s(dp48
g15
S'curve'
p49
sS'x'
F917
sg17
I01
sS'y'
F1285
s(dp50
g15
S'line'
p51
sS'x'
F930
sg17
I01
sS'y'
F1313
s(dp52
S'y'
F1344
sS'x'
F945
sg17
I00
s(dp53
S'y'
F1380
sS'x'
F928
sg17
I00
s(dp54
g15
S'curve'
p55
sS'x'
F894
sg17
I01
sS'y'
F1393
s(dp56
S'y'
F1447
sS'x'
F749
sg17
I00
s(dp57
S'y'
F1476
sS'x'
F604
sg17
I00
s(dp58
g15
S'curve'
p59
sS'x'
F379
sg17
I01
sS'y'
F1476
s(dp60
S'y'
F1476
sS'x'
F147
sg17
I00
s(dp61
S'y'
F1457
sS'x'
F-242
sg17
I00
s(dp62
g15
S'curve'
p63
sS'x'
F-242
sg17
I01
sS'y'
F1157
s(dp64
S'y'
F1059
sS'x'
F-242
sg17
I00
s(dp65
S'y'
F995
sS'x'
F-196
sg17
I00
s(dp66
g15
S'curve'
p67
sS'x'
F-115
sg17
I00
sS'y'
F953
s(dp68
S'y'
F898
sS'x'
F-188
sg17
I00
s(dp69
S'y'
F820
sS'x'
F-242
sg17
I00
s(dp70
g15
S'curve'
p71
sS'x'
F-242
sg17
I01
sS'y'
F735
s(dp72
S'y'
F506
sS'x'
F-242
sg17
I00
s(dp73
S'y'
F463
sS'x'
F9
sg17
I00
s(dp74
g15
S'curve'
p75
sS'x'
F376
sg17
I01
sS'y'
F449
s(dp76
S'y'
F433
sS'x'
F804
sg17
I00
s(dp77
S'y'
F393
sS'x'
F844
sg17
I00
s(dp78
g15
S'curve'
p79
sS'x'
F844
sg17
I01
sS'y'
F297
s(dp80
S'y'
F183
sS'x'
F844
sg17
I00
s(dp81
S'y'
F117
sS'x'
F762
sg17
I00
s(dp82
g15
S'curve'
p83
sS'x'
F427
sg17
I01
sS'y'
F117
s(dp84
S'y'
F117
sS'x'
F197
sg17
I00
s(dp85
S'y'
F143
sS'x'
F44
sg17
I00
s(dp86
g15
S'curve'
p87
sS'x'
F-131
sg17
I01
sS'y'
F210
s(dp88
S'y'
F225
sS'x'
F-171
sg17
I00
s(dp89
S'y'
F208
sS'x'
F-208
sg17
I00
s(dp90
g15
S'curve'
p91
sS'x'
F-227
sg17
I00
sS'y'
F167
s(dp92
g15
S'line'
p93
sS'x'
F-235
sg17
I00
sS'y'
F151
s(dp94
S'y'
F117
sS'x'
F-250
sg17
I00
s(dp95
S'y'
F73
sS'x'
F-231
sg17
I00
s(dp96
g15
S'curve'
p97
sS'x'
F-198
sg17
I01
sS'y'
F60
s(dp98
S'y'
F-17
sS'x'
F-11
sg17
I00
s(dp99
S'y'
F-40
sS'x'
F218
sg17
I00
stp100
s(dp101
g13
((dp102
g15
S'curve'
p103
sS'x'
F800
sg17
I00
sS'y'
F576
s(dp104
S'y'
F600
sS'x'
F701
sg17
I00
s(dp105
S'y'
F609
sS'x'
F572
sg17
I00
s(dp106
g15
S'curve'
p107
sS'x'
F418
sg17
I01
sS'y'
F620
s(dp108
S'y'
F649
sS'x'
F-11
sg17
I00
s(dp109
S'y'
F676
sS'x'
F-35
sg17
I00
s(dp110
g15
S'curve'
p111
sS'x'
F-35
sg17
I01
sS'y'
F755
s(dp112
S'y'
F792
sS'x'
F-35
sg17
I00
s(dp113
S'y'
F856
sS'x'
F-22
sg17
I00
s(dp114
g15
S'curve'
p115
sS'x'
F15
sg17
I00
sS'y'
F908
s(dp116
S'y'
F886
sS'x'
F114
sg17
I00
s(dp117
S'y'
F876
sS'x'
F237
sg17
I00
s(dp118
g15
S'curve'
p119
sS'x'
F376
sg17
I01
sS'y'
F871
s(dp120
S'y'
F855
sS'x'
F804
sg17
I00
s(dp121
S'y'
F815
sS'x'
F844
sg17
I00
s(dp122
g15
S'curve'
p123
sS'x'
F844
sg17
I01
sS'y'
F719
s(dp124
S'y'
F693
sS'x'
F844
sg17
I00
s(dp125
S'y'
F576
sS'x'
F800
sg17
I00
stp126
stp127
sS'components'
p128
(tsS'anchors'
p129
(tsss."
LayerCount: 2
Fore
SplineSet
343 -13 m 0
 490 -13 574 100 574 247 c 0
 574 356 532 425 474 478 c 1
 538 519 574 585 574 680 c 0
 574 853 467 927 358 992 c 0
 265 1047 224 1102 224 1211 c 0
 224 1301 269 1389 360 1389 c 0
 427 1389 465 1363 507 1318 c 1
 522 1323 l 1
 543 1355 l 1
 539 1374 l 1
 489 1427 426 1451 358 1451 c 0
 236 1451 155 1351 155 1208 c 0
 155 1093 201 1025 262 973 c 1
 195 938 155 875 155 775 c 0
 155 607 252 539 353 478 c 0
 434 429 505 371 505 248 c 0
 505 144 451 49 344 49 c 0
 262 49 208 91 155 155 c 1
 136 149 l 1
 119 120 l 1
 120 96 l 1
 181 22 243 -13 343 -13 c 0
419 521 m 1
 399 534 379 547 358 559 c 0
 265 614 224 669 224 778 c 0
 224 855 256 911 322 930 c 1
 332 924 343 917 353 911 c 0
 434 862 505 804 505 681 c 0
 505 606 477 551 421 521 c 1
 419 521 l 1
EndSplineSet
EndChar

StartChar: semicolon
Encoding: 27 59 111
Width: 307
VWidth: 0
Flags: HW
LayerCount: 2
Fore
SplineSet
130 754 m 2
 177 754 l 2
 192 754 203 788 203 831 c 2
 203 975 l 2
 203 1018 192 1052 177 1052 c 2
 130 1052 l 2
 116 1052 105 1018 105 975 c 2
 105 831 l 2
 105 788 116 754 130 754 c 2
118 -301 m 0
 166 -278 211 -142 211 95 c 2
 211 240 l 2
 211 283 199 317 184 317 c 2
 117 317 l 2
 102 317 96 296 96 253 c 2
 96 50 l 2
 96 12 104 0 117 0 c 2
 145 0 l 2
 151 0 151 -11 151 -27 c 0
 151 -51 140 -128 117 -171 c 0
 102 -198 96 -192 96 -246 c 2
 96 -256 l 2
 96 -292 106 -307 118 -301 c 0
EndSplineSet
EndChar

StartChar: seven
Encoding: 23 55 112
Width: 454
VWidth: 0
Flags: HW
PickledData: "(dp1
S'com.typemytype.robofont.layerData'
p2
(dp3
S'b'
(dp4
S'name'
p5
S'seven'
p6
sS'lib'
p7
(dp8
sS'unicodes'
p9
(tsS'width'
p10
F454.946178551
sS'contours'
p11
(tsS'components'
p12
(tsS'anchors'
p13
(tsss."
LayerCount: 2
Fore
SplineSet
183 0 m 2
 215 0 l 2
 230 0 234 4 238 45 c 2
 374 1396 l 2
 378 1438 369 1438 353 1438 c 2
 102 1438 l 2
 87 1438 79 1438 79 1418 c 2
 79 1403 l 2
 79 1378 87 1378 102 1378 c 2
 280 1378 l 2
 287 1378 291 1378 290 1369 c 2
 161 45 l 2
 157 4 168 0 183 0 c 2
EndSplineSet
EndChar

StartChar: six
Encoding: 22 54 113
Width: 773
VWidth: 0
Flags: HW
PickledData: "(dp1
S'com.typemytype.robofont.layerData'
p2
(dp3
S'b'
(dp4
S'name'
p5
S'six'
p6
sS'lib'
p7
(dp8
sS'unicodes'
p9
(tsS'width'
p10
I773
sS'contours'
p11
((dp12
S'points'
p13
((dp14
S'segmentType'
p15
S'curve'
p16
sS'x'
F422.25999999999999
sS'smooth'
p17
I01
sS'y'
F51
s(dp18
S'y'
F51
sS'x'
F237.989
sg17
I00
s(dp19
S'y'
F168
sS'x'
F168
sg17
I00
s(dp20
g15
S'curve'
p21
sS'x'
F168
sg17
I01
sS'y'
F724
s(dp22
S'y'
F1212
sS'x'
F168
sg17
I00
s(dp23
S'y'
F1388
sS'x'
F233.495
sg17
I00
s(dp24
g15
S'curve'
p25
sS'x'
F422.25999999999999
sg17
I01
sS'y'
F1388
s(dp26
S'y'
F1388
sS'x'
F613.27200000000005
sg17
I00
s(dp27
S'y'
F1233
sS'x'
F678
sg17
I00
s(dp28
g15
S'curve'
p29
sS'x'
F678
sg17
I01
sS'y'
F724
s(dp30
S'y'
F154
sS'x'
F678
sg17
I00
s(dp31
S'y'
F51
sS'x'
F608.77700000000004
sg17
I00
stp32
s(dp33
g13
((dp34
g15
S'curve'
p35
sS'x'
F422.25999999999999
sg17
I01
sS'y'
F-13
s(dp36
S'y'
F-13
sS'x'
F673.94600000000003
sg17
I00
s(dp37
S'y'
F125
sS'x'
F756
sg17
I00
s(dp38
g15
S'curve'
p39
sS'x'
F756
sg17
I01
sS'y'
F724
s(dp40
S'y'
F1276
sS'x'
F756
sg17
I00
s(dp41
S'y'
F1451
sS'x'
F673.94600000000003
sg17
I00
s(dp42
g15
S'curve'
p43
sS'x'
F422.25999999999999
sg17
I01
sS'y'
F1451
s(dp44
S'y'
F1451
sS'x'
F173.94399999999999
sg17
I00
s(dp45
S'y'
F1266
sS'x'
F90
sg17
I00
s(dp46
g15
S'curve'
p47
sS'x'
F90
sg17
I01
sS'y'
F724
s(dp48
S'y'
F135
sS'x'
F90
sg17
I00
s(dp49
S'y'
F-13
sS'x'
F173.94399999999999
sg17
I00
stp50
stp51
sS'components'
p52
(tsS'anchors'
p53
((dp54
S'y'
F1455
sS'x'
F423
sg5
S'top'
p55
stp56
sss."
LayerCount: 2
Fore
SplineSet
378 51 m 0
 216 56 168 248 168 705 c 2
 168 732 l 1
 264 766 348 781 405 781 c 0
 577 781 610 603 610 431 c 0
 610 127 528 46 378 51 c 0
367 -12 m 0
 542 -18 685 61 684.204 426 c 0
 684 653 638 846 407 846 c 0
 347 846 261 831 171 797 c 1
 171 840 l 2
 171 1232 238 1388 415 1388 c 0
 513 1388 565 1341 603 1315 c 0
 625 1300 647 1355 622 1377 c 0
 582 1412 507 1451 419 1451 c 0
 202 1451 90 1295 90 736 c 0
 90 292 122 -4 367 -12 c 0
EndSplineSet
EndChar

StartChar: slash
Encoding: 15 47 114
Width: 457
VWidth: 0
Flags: HW
LayerCount: 2
Fore
SplineSet
81 -205 m 2
 138 -205 l 2
 145 -205 151 -191 154 -170 c 2
 388 1612 l 2
 390 1629 385 1647 380 1647 c 2
 324 1647 l 2
 318 1647 309 1633 307 1612 c 2
 73 -170 l 2
 71 -187 75 -205 81 -205 c 2
EndSplineSet
EndChar

StartChar: sterling
Encoding: 98 163 116
Width: 841
VWidth: 0
Flags: HW
PickledData: "(dp1
S'com.typemytype.robofont.layerData'
p2
(dp3
S'b'
(dp4
S'name'
p5
S'sterling'
p6
sS'lib'
p7
(dp8
sS'unicodes'
p9
(tsS'width'
p10
F841.00777670299999
sS'contours'
p11
(tsS'components'
p12
(tsS'anchors'
p13
(tsss."
LayerCount: 2
Fore
SplineSet
73 0 m 2
 732 0 l 2
 754 0 760 1 760 23 c 2
 760 37 l 2
 760 59 754 60 732 60 c 2
 316 60 l 2
 290 60 288 64 288 100 c 2
 288 682 l 1
 636 682 l 2
 647 682 658 684 658 707 c 2
 658 716 l 2
 658 740 647 742 636 742 c 2
 290 742 l 1
 290 906 l 2
 290 1272 321 1379 523 1388 c 0
 634 1393 690 1357 723 1336 c 0
 751 1318 765 1314 772 1338 c 1
 775 1346 l 1
 781 1367 759 1383 741 1394 c 0
 721 1406 656 1455 511 1451 c 0
 235 1443 213 1232 212 889 c 0
 212 874 212 758 212 742 c 1
 55 742 l 2
 45 742 31 740 31 716 c 2
 31 707 l 2
 31 684 45 682 55 682 c 2
 186 682 l 2
 206 682 212 666 212 639 c 2
 212 83 l 2
 212 63 210 60 186 60 c 2
 73 60 l 2
 38 60 31 60 31 37 c 2
 31 24 l 2
 31 2 38 0 73 0 c 2
EndSplineSet
EndChar

StartChar: t
Encoding: 84 116 117
Width: 417
VWidth: 0
Flags: HW
PickledData: "(dp1
S'com.typemytype.robofont.layerData'
p2
(dp3
S'b'
(dp4
S'name'
p5
S't'
sS'lib'
p6
(dp7
sS'unicodes'
p8
(tsS'width'
p9
I417
sS'contours'
p10
(tsS'components'
p11
(tsS'anchors'
p12
(tsss."
LayerCount: 2
Fore
SplineSet
286 -3 m 2
 364 -3 l 2
 382 -3 391 2 391 18 c 2
 391 53 l 2
 391 65 375 67 362 67 c 2
 298 67 l 2
 245 67 204 91 204 301 c 2
 204 921 l 2
 204 936 206 937 214 937 c 2
 345 937 l 2
 361 937 368 938 368 969 c 2
 368 973 l 2
 368 1005 361 1006 345 1006 c 2
 214 1006 l 2
 206 1006 204 1013 204 1033 c 2
 204 1428 l 2
 204 1471 196 1475 181 1475 c 2
 163 1475 l 2
 149 1475 142 1470 141 1428 c 2
 127 1033 l 2
 127 1013 123 1006 117 1006 c 2
 49 1006 l 2
 34 1006 26 1005 26 973 c 2
 26 969 l 2
 26 938 34 937 49 937 c 2
 117 937 l 2
 123 937 127 936 127 921 c 2
 127 297 l 2
 127 70 181 -3 286 -3 c 2
EndSplineSet
EndChar

StartChar: three
Encoding: 19 51 118
Width: 798
VWidth: 0
Flags: HW
PickledData: "(dp1
S'com.typemytype.robofont.layerData'
p2
(dp3
S'b'
(dp4
S'name'
p5
S'three'
p6
sS'lib'
p7
(dp8
sS'unicodes'
p9
(tsS'width'
p10
F798.26122520700005
sS'contours'
p11
((dp12
S'points'
p13
((dp14
S'y'
F135
sS'x'
F42.26122520720979
sS'smooth'
p15
I00
s(dp16
S'y'
F-13
sS'x'
F126.2612252072098
sg15
I00
s(dp17
S'segmentType'
p18
S'curve'
p19
sS'x'
F374.2612252072098
sg15
I01
sS'y'
F-13
s(dp20
S'y'
F-13
sS'x'
F626.2612252072098
sg15
I00
s(dp21
S'y'
F125
sS'x'
F708.2612252072098
sg15
I00
s(dp22
g18
S'curve'
p23
sS'x'
F708.2612252072098
sg15
I01
sS'y'
F724
s(dp24
S'y'
F1276
sS'x'
F708.2612252072098
sg15
I00
s(dp25
S'y'
F1451
sS'x'
F626.2612252072098
sg15
I00
s(dp26
g18
S'curve'
p27
sS'x'
F374.2612252072098
sg15
I01
sS'y'
F1451
s(dp28
S'y'
F1451
sS'x'
F126.2612252072098
sg15
I00
s(dp29
S'y'
F1266
sS'x'
F42.26122520720979
sg15
I00
s(dp30
g18
S'curve'
p31
sS'x'
F42.26122520720979
sg15
I01
sS'y'
F724
stp32
s(dp33
g13
((dp34
S'y'
F154
sS'x'
F630.2612252072098
sg15
I00
s(dp35
S'y'
F51
sS'x'
F561.2612252072098
sg15
I00
s(dp36
g18
S'curve'
p37
sS'x'
F374.2612252072098
sg15
I01
sS'y'
F51
s(dp38
S'y'
F51
sS'x'
F190.2612252072098
sg15
I00
s(dp39
S'y'
F168
sS'x'
F120.26122520720979
sg15
I00
s(dp40
g18
S'curve'
p41
sS'x'
F120.26122520720979
sg15
I01
sS'y'
F724
s(dp42
S'y'
F1212
sS'x'
F120.26122520720979
sg15
I00
s(dp43
S'y'
F1388
sS'x'
F185.2612252072098
sg15
I00
s(dp44
g18
S'curve'
p45
sS'x'
F374.2612252072098
sg15
I01
sS'y'
F1388
s(dp46
S'y'
F1388
sS'x'
F565.2612252072098
sg15
I00
s(dp47
S'y'
F1233
sS'x'
F630.2612252072098
sg15
I00
s(dp48
g18
S'curve'
p49
sS'x'
F630.2612252072098
sg15
I01
sS'y'
F724
stp50
stp51
sS'components'
p52
(tsS'anchors'
p53
((dp54
S'y'
F1455
sS'x'
F355.2612252072098
sg5
S'top'
p55
stp56
sss."
LayerCount: 2
Fore
SplineSet
392.261225207 -12 m 0
 560.261225207 -18 717.261225207 55 717.261225207 375 c 0
 717.261225207 575 662.261225207 713 509.261225207 737 c 1
 638.261225207 775 703.261225207 863 703.261225207 1063 c 0
 703.261225207 1364 573.261225207 1451 407.261225207 1451 c 0
 276.261225207 1451 138.261225207 1381 113.261225207 1077 c 0
 111.261225207 1057 110.261225207 1041 121.261225207 1039 c 2
 156.261225207 1032 l 2
 172.261225207 1029 181.261225207 1035 183.261225207 1060 c 0
 205.261225207 1311 303.261225207 1388 407.261225207 1388 c 0
 547.261225207 1388 623.261225207 1304 623.261225207 1060 c 0
 623.261225207 843 553.261225207 775 376.261225207 775 c 0
 360.261225207 775 359.261225207 759 359.261225207 749 c 2
 359.261225207 722 l 2
 359.261225207 708 362.261225207 699 376.261225207 699 c 0
 547.261225207 699 639.261225207 657 640.261225207 390 c 0
 640.261225207 134 565.261225207 44 392.261225207 51 c 0
 257.261225207 56 219.261225207 172 193.261225207 346 c 0
 191.261225207 358 184.261225207 386 168.261225207 382 c 2
 126.261225207 371 l 2
 115.261225207 368 115.261225207 355 120.261225207 333 c 1
 154.261225207 48 261.261225207 -7 392.261225207 -12 c 0
EndSplineSet
EndChar

StartChar: two
Encoding: 18 50 119
Width: 773
VWidth: 0
Flags: HW
PickledData: "(dp1
S'com.typemytype.robofont.layerData'
p2
(dp3
S'b'
(dp4
S'name'
p5
S'two'
p6
sS'lib'
p7
(dp8
sS'unicodes'
p9
(tsS'width'
p10
I773
sS'contours'
p11
((dp12
S'points'
p13
((dp14
S'segmentType'
p15
S'curve'
p16
sS'x'
F514
sS'smooth'
p17
I00
sS'y'
F737
s(dp18
S'y'
F775
sS'x'
F643
sg17
I00
s(dp19
S'y'
F863
sS'x'
F708
sg17
I00
s(dp20
g15
S'curve'
p21
sS'x'
F708
sg17
I01
sS'y'
F1063
s(dp22
S'y'
F1364
sS'x'
F708
sg17
I00
s(dp23
S'y'
F1451
sS'x'
F578
sg17
I00
s(dp24
g15
S'curve'
p25
sS'x'
F412
sg17
I01
sS'y'
F1451
s(dp26
S'y'
F1451
sS'x'
F281
sg17
I00
s(dp27
S'y'
F1381
sS'x'
F143
sg17
I00
s(dp28
g15
S'curve'
p29
sS'x'
F118
sg17
I01
sS'y'
F1077
s(dp30
S'y'
F1057
sS'x'
F116
sg17
I00
s(dp31
S'y'
F1041
sS'x'
F115
sg17
I00
s(dp32
g15
S'curve'
p33
sS'x'
F126
sg17
I01
sS'y'
F1039
s(dp34
g15
S'line'
p35
sS'x'
F161
sg17
I01
sS'y'
F1032
s(dp36
S'y'
F1029
sS'x'
F177
sg17
I00
s(dp37
S'y'
F1035
sS'x'
F186
sg17
I00
s(dp38
g15
S'curve'
p39
sS'x'
F188
sg17
I01
sS'y'
F1060
s(dp40
S'y'
F1311
sS'x'
F210
sg17
I00
s(dp41
S'y'
F1388
sS'x'
F308
sg17
I00
s(dp42
g15
S'curve'
p43
sS'x'
F412
sg17
I01
sS'y'
F1388
s(dp44
S'y'
F1388
sS'x'
F552
sg17
I00
s(dp45
S'y'
F1304
sS'x'
F628
sg17
I00
s(dp46
g15
S'curve'
p47
sS'x'
F628
sg17
I01
sS'y'
F1060
s(dp48
S'y'
F843
sS'x'
F628
sg17
I00
s(dp49
S'y'
F775
sS'x'
F558
sg17
I00
s(dp50
g15
S'curve'
p51
sS'x'
F381
sg17
I01
sS'y'
F775
s(dp52
S'y'
F775
sS'x'
F365
sg17
I00
s(dp53
S'y'
F759
sS'x'
F364
sg17
I00
s(dp54
g15
S'curve'
p55
sS'x'
F364
sg17
I01
sS'y'
F749
s(dp56
g15
S'line'
p57
sS'x'
F364
sg17
I00
sS'y'
F722
s(dp58
S'y'
F708
sS'x'
F364
sg17
I00
s(dp59
S'y'
F699
sS'x'
F367
sg17
I00
s(dp60
g15
S'curve'
p61
sS'x'
F381
sg17
I01
sS'y'
F699
s(dp62
S'y'
F699
sS'x'
F407
sg17
I00
s(dp63
S'y'
F721
sS'x'
F465
sg17
I00
stp64
stp65
sS'components'
p66
(tsS'anchors'
p67
(tsss."
LayerCount: 2
Fore
SplineSet
619 0 m 2
 633 0 641 0 641 27 c 2
 641 33 l 2
 641 60 633 60 619 60 c 2
 194 60 l 1
 194 105 l 2
 194 631 689 577 689 1063 c 0
 689 1364 572 1451 406 1451 c 0
 275 1451 143 1381 118 1077 c 0
 116 1057 115 1041 126 1039 c 2
 161 1032 l 2
 177 1029 186 1035 188 1060 c 0
 210 1311 291 1388 403 1388 c 0
 543 1388 609 1304 609 1060 c 0
 609 603 116 674 116 94 c 2
 116 32 l 2
 116 0 124 0 138 0 c 2
 619 0 l 2
EndSplineSet
EndChar

StartChar: u
Encoding: 85 117 120
Width: 639
VWidth: 0
Flags: HW
PickledData: "(dp1
S'com.typemytype.robofont.layerData'
p2
(dp3
S'b'
(dp4
S'name'
p5
S'u'
sS'lib'
p6
(dp7
sS'unicodes'
p8
(tsS'width'
p9
F639.00099999999998
sS'contours'
p10
(tsS'components'
p11
(tsS'anchors'
p12
(tsss."
LayerCount: 2
Fore
SplineSet
275 -12 m 0
 348 -12 430 18 470 189 c 0
 471 196 473 204 475 204 c 0
 479 204 480 199 481 191 c 2
 490.001 54 l 1
 495.001 4 501.001 0 517.001 0 c 2
 523.001 0 l 2
 538.001 0 544.001 24 544.001 67 c 2
 544.001 954 l 2
 544.001 997 535.001 1006 520.001 1006 c 2
 488.001 1006 l 2
 474.001 1006 465 997 465 954 c 2
 465 359 l 2
 465 226 384 50 276 50 c 0
 205 50 165 94 165 319 c 2
 165 954 l 2
 165 997 157 1006 142 1006 c 2
 109 1006 l 2
 95 1006 86 997 86 954 c 2
 86 373 l 2
 86 37 158 -12 275 -12 c 0
EndSplineSet
EndChar

StartChar: underscore
Encoding: 63 95 121
Width: 540
VWidth: 0
Flags: HW
PickledData: "(dp1
S'com.typemytype.robofont.layerData'
p2
(dp3
S'b'
(dp4
S'name'
p5
S'underscore'
p6
sS'lib'
p7
(dp8
sS'unicodes'
p9
(tsS'width'
p10
I540
sS'contours'
p11
(tsS'components'
p12
(tsS'anchors'
p13
(tsss."
LayerCount: 2
Fore
SplineSet
37 0 m 2
 507 0 l 2
 520 0 530 0 530 27 c 2
 530 35 l 2
 530 60 520 60 507 60 c 2
 37 60 l 2
 24 60 14 60 14 33 c 2
 14 25 l 2
 14 0 24 0 37 0 c 2
EndSplineSet
EndChar

StartChar: v
Encoding: 86 118 122
Width: 552
VWidth: 0
Flags: HW
PickledData: "(dp1
S'com.typemytype.robofont.layerData'
p2
(dp3
S'b'
(dp4
S'name'
p5
S'v'
sS'lib'
p6
(dp7
sS'unicodes'
p8
(tsS'width'
p9
I552
sS'contours'
p10
(tsS'components'
p11
(tsS'anchors'
p12
(tsss."
LayerCount: 2
Fore
SplineSet
252 1 m 2
 290 1 l 2
 304 1 318 27 326 67 c 2
 498 939 l 2
 502 957 504 971 504 982 c 0
 504 998 500 1006 491 1006 c 2
 449 1006 l 2
 435 1006 425 985 417 939 c 2
 277 121 l 2
 276 115 275 112 274 112 c 0
 272 112 271 115 270 121 c 2
 133 939 l 2
 125 982 119 1006 103 1006 c 2
 62 1006 l 2
 52 1006 48 996 48 977 c 0
 48 967 49 954 52 939 c 2
 221 67 l 2
 229 27 239 1 252 1 c 2
EndSplineSet
EndChar

StartChar: w
Encoding: 87 119 123
Width: 903
VWidth: 0
Flags: HW
PickledData: "(dp1
S'com.typemytype.robofont.layerData'
p2
(dp3
S'b'
(dp4
S'name'
p5
S'w'
sS'lib'
p6
(dp7
sS'unicodes'
p8
(tsS'width'
p9
I903
sS'contours'
p10
(tsS'components'
p11
(tsS'anchors'
p12
(tsss."
LayerCount: 2
Fore
SplineSet
240 0 m 2
 280 0 l 2
 294.607 0 311.461 23 319.326 67 c 2
 448 823 l 2
 449 826 453 830 454 830 c 0
 455 830 456 829 457 823 c 2
 593.484 67 l 2
 601.35 26 615.956 0 630.563 0 c 2
 671.563 0 l 2
 684.563 0 699.563 23 707.563 67 c 2
 847 939 l 1
 851 957 853 971 853 982 c 0
 853 998 849 1006 841 1006 c 2
 803.563 1006 l 2
 787.563 1006 777.563 986 770.563 939 c 2
 657 123 l 2
 657 120 656 115 652 115 c 0
 651 115 650 117 649 123 c 2
 497 939 l 2
 489 980 484.495 1006 471.012 1006 c 2
 440 1006 l 2
 424 1006 417 986 409 939 c 2
 266 123 l 2
 265 117 264 113 262 113 c 0
 261 113 260 116 257 123 c 1
 130 939 l 1
 122 983 116 1006 100 1006 c 2
 64 1006 l 2
 54 1006 50 996 50 977 c 0
 50 967 51 954 54 939 c 2
 207 67 l 2
 214 27 226 0 240 0 c 2
EndSplineSet
EndChar

StartChar: x
Encoding: 88 120 124
Width: 565
VWidth: 0
Flags: HW
PickledData: "(dp1
S'com.typemytype.robofont.layerData'
p2
(dp3
S'b'
(dp4
S'name'
p5
S'x'
sS'lib'
p6
(dp7
sS'unicodes'
p8
(tsS'width'
p9
I565
sS'contours'
p10
(tsS'components'
p11
(tsS'anchors'
p12
(tsss."
LayerCount: 2
Fore
SplineSet
60 0 m 2
 85 0 l 2
 102 0 114 18 128 47 c 1
 152 103 216 270 273 414 c 1
 279 419 281 420 282 420 c 0
 285 420 286 417 288 414 c 0
 352 267 408 98 430 50 c 1
 441 21 458 0 475 0 c 2
 505 0 l 2
 510 0 513 14 513 28 c 0
 513 35 512 42 510 48 c 0
 441 219 379 368 325 493 c 1
 324 499 322 504 322 507 c 0
 322 511 324 513 325 515 c 0
 393 678 464 845 508 960 c 1
 511 965 512 973 512 981 c 0
 512 994 508 1006 503 1006 c 2
 473 1006 l 2
 458 1006 449 987 437 958 c 0
 414 903 342 717 288 585 c 0
 287 582 284 581 282 581 c 0
 281 581 281 583 280 585 c 0
 208 750 161 899 137 956 c 0
 125 985 115 1006 99 1006 c 2
 66 1006 l 2
 62 1006 57 992 57 978 c 0
 57 971 59 963 61 958 c 0
 85 892 150 702 233 511 c 1
 234 506 234 502 234 499 c 0
 234 495 234 494 233 492 c 0
 170 349 114 193 55 46 c 0
 53 41 52 33 52 26 c 0
 52 13 55 0 60 0 c 2
EndSplineSet
EndChar

StartChar: y
Encoding: 89 121 125
Width: 570
VWidth: 0
Flags: HW
PickledData: "(dp1
S'com.typemytype.robofont.layerData'
p2
(dp3
S'b'
(dp4
S'name'
p5
S'y'
sS'lib'
p6
(dp7
sS'unicodes'
p8
(tsS'width'
p9
I570
sS'contours'
p10
(tsS'components'
p11
(tsS'anchors'
p12
(tsss."
LayerCount: 2
Fore
SplineSet
218 -255 m 0
 291 -247 311 -170 343 8 c 1
 523 943 l 2
 524 950 525 957 525 964 c 0
 525 990 519 1006 509 1006 c 2
 477 1006 l 2
 462 1006 453 990 447 947 c 1
 306 148 l 2
 305 141 304 137 302 137 c 0
 300 137 299 140 297 146 c 2
 129 950 l 2
 121 992 112 1006 96 1006 c 2
 62 1006 l 2
 53 1006 46 992 46 969 c 0
 46 962 47 954 48 947 c 2
 245 110 l 1
 255 72 264 33 264 2 c 0
 264 -75 244 -187 198 -187 c 0
 169 -187 140 -177 128 -173 c 0
 121 -171 108 -187 108 -210 c 0
 108 -214 108 -218 109 -221 c 0
 117 -247 172 -260 218 -255 c 0
EndSplineSet
EndChar

StartChar: yen
Encoding: 100 165 126
Width: 606
VWidth: 0
Flags: HW
PickledData: "(dp1
S'com.typemytype.robofont.layerData'
p2
(dp3
S'b'
(dp4
S'name'
p5
S'yen'
p6
sS'lib'
p7
(dp8
sS'unicodes'
p9
(tsS'width'
p10
I606
sS'contours'
p11
(tsS'components'
p12
(tsS'anchors'
p13
(tsss."
LayerCount: 2
Fore
SplineSet
152 366 m 2
 446 366 l 2
 461 366 466 366 466 409 c 2
 466 413 l 2
 466 456 461 456 446 456 c 2
 152 456 l 2
 137 456 133 456 133 413 c 2
 133 409 l 2
 133 366 137 366 152 366 c 2
152 563 m 2
 446 563 l 2
 461 563 466 563 466 606 c 2
 466 610 l 2
 466 653 461 653 446 653 c 2
 152 653 l 2
 137 653 133 653 133 610 c 2
 133 606 l 2
 133 563 137 563 152 563 c 2
EndSplineSet
Refer: 31 89 N 1 0 0 1 0 0 2
EndChar

StartChar: z
Encoding: 90 122 127
Width: 484
VWidth: 0
Flags: HW
PickledData: "(dp1
S'com.typemytype.robofont.layerData'
p2
(dp3
S'b'
(dp4
S'name'
p5
S'z'
sS'lib'
p6
(dp7
sS'unicodes'
p8
(tsS'width'
p9
I484
sS'contours'
p10
(tsS'components'
p11
(tsS'anchors'
p12
(tsss."
LayerCount: 2
Fore
SplineSet
96 0 m 2
 420 0 l 2
 425 0 432 3 432 17 c 2
 432 53 l 2
 432 68 425 70 420 70 c 2
 155 70 l 1
 410 905 l 2
 414 919 419 943 419 966 c 2
 419 987 l 2
 419 1003 406 1006 399 1006 c 2
 89 1006 l 2
 82 1006 78 1000 78 987 c 2
 78 959 l 2
 78 939 82 936 89 936 c 2
 345 936 l 1
 95 111 l 2
 84 76 77 62 77 39 c 2
 77 15 l 2
 77 3 90 0 96 0 c 2
EndSplineSet
EndChar

StartChar: zero
Encoding: 16 48 128
Width: 788
VWidth: 0
Flags: HW
LayerCount: 2
Fore
SplineSet
392.967 -21 m 0
 570.496 -21 697.811 153 697.811 732 c 0
 697.811 1301 570.496 1455 392.967 1455 c 0
 217.686 1455 89 1295 89 732 c 0
 89 153 217.686 -21 392.967 -21 c 0
394.091 43 m 0
 245.776 43 166 218 166 732 c 0
 166 1222 241.281 1392 394.091 1392 c 0
 548.024 1392 618.811 1224 618.811 732 c 0
 618.811 213 543.53 43 394.091 43 c 0
EndSplineSet
EndChar

StartChar: tilde
Encoding: 354 732 249
Width: 332
VWidth: 0
Flags: HO
LayerCount: 2
Fore
SplineSet
-267.032226562 163.0546875 m 0
 -71.0322265625 167.0546875 158.967773438 341.0546875 301.967773438 348.0546875 c 0
 365.967773438 351.0546875 398.967773438 278.0546875 443.967773438 204.0546875 c 0
 452.967773438 189.0546875 464.967773438 173.0546875 484.967773438 176.0546875 c 0
 497.967773438 178.0546875 496.967773438 178.0546875 505.967773438 184.0546875 c 0
 523.967773438 196.0546875 521.967773438 204.0546875 521.967773438 220.0546875 c 0
 521.967773438 228.0546875 519.967773438 237.0546875 514.967773438 247.0546875 c 0
 458.967773438 363.0546875 416.967773438 431.0546875 286.967773438 426.0546875 c 0
 111.967773438 419.0546875 -100.032226562 242.0546875 -253.032226562 241.0546875 c 0
 -346.032226562 240.0546875 -397.032226562 281.0546875 -439.032226562 402.0546875 c 0
 -442.032226562 410.0546875 -445.032226562 429.0546875 -469.032226562 429.0546875 c 0
 -476.032226562 429.0546875 -485.032226562 427.0546875 -495.032226562 422.0546875 c 2
 -505.032226562 418.0546875 l 1
 -528.032226562 407.0546875 -521.032226562 398.0546875 -521.032226562 385.0546875 c 0
 -521.032226562 377.0546875 -520.032226562 370.0546875 -516.032226562 360.0546875 c 0
 -487.032226562 282.0546875 -431.032226562 160.0546875 -267.032226562 163.0546875 c 0
EndSplineSet
EndChar

